<svg xmlns="http://www.w3.org/2000/svg" xmlns:xlink="http://www.w3.org/1999/xlink" width="500" zoomAndPan="magnify" viewBox="0 0 375 374.999991" height="500" preserveAspectRatio="xMidYMid meet" version="1.0"><defs><clipPath id="d549088de8"><path d="M 295 149 L 333.339844 149 L 333.339844 169 L 295 169 Z M 295 149 " clip-rule="nonzero"/></clipPath><clipPath id="46ee872c97"><path d="M 41.589844 189 L 72 189 L 72 222 L 41.589844 222 Z M 41.589844 189 " clip-rule="nonzero"/></clipPath></defs><path fill="#4caf50" d="M 88.117188 373.769531 C 92.261719 352.289062 98.097656 331.277344 105.628906 310.738281 C 113.191406 290.125 122.023438 270.070312 132.121094 250.570312 C 142.152344 231.089844 153.222656 212.1875 164.984375 193.660156 C 177.039062 174.699219 189.558594 155.859375 203.253906 138.039062 C 217.558594 119.367188 234.464844 103.152344 251.71875 87.300781 L 258.160156 81.398438 C 258.65625 80.941406 257.921875 80.214844 257.421875 80.664062 C 240.183594 96.429688 222.859375 112.28125 208.003906 130.382812 C 200.523438 139.511719 193.6875 149.148438 186.957031 158.835938 C 180.675781 167.828125 174.542969 176.945312 168.554688 186.191406 C 156.570312 204.648438 145.242188 223.539062 134.921875 242.976562 C 124.558594 262.355469 115.414062 282.289062 107.484375 302.78125 C 99.59375 323.183594 93.34375 344.074219 88.738281 365.457031 C 88.164062 368.136719 87.625 370.816406 87.121094 373.507812 C 86.996094 374.160156 87.992188 374.441406 88.15625 373.789062 Z M 88.117188 373.769531 " fill-opacity="1" fill-rule="nonzero"/><path fill="#4caf50" d="M 251.945312 86.066406 C 251.375 81.714844 251.449219 77.371094 252.171875 73.042969 C 252.890625 68.710938 254.222656 64.578125 256.167969 60.640625 C 257.953125 57.042969 260.402344 53.535156 264.042969 51.84375 C 266.023438 50.910156 268.710938 50.734375 270.132812 52.40625 C 270.605469 53.027344 270.929688 53.71875 271.105469 54.480469 C 272.671875 59.84375 271.25 65.734375 268.429688 70.558594 C 265.609375 75.382812 261.488281 79.292969 257.320312 83.007812 C 256.011719 84.167969 254.394531 85.402344 252.691406 84.976562 " fill-opacity="1" fill-rule="nonzero"/><path fill="#4caf50" d="M 238.222656 100.972656 C 239.230469 99.933594 240.304688 98.96875 241.449219 98.082031 C 242.589844 97.191406 243.789062 96.382812 245.042969 95.660156 C 246.296875 94.933594 247.59375 94.300781 248.933594 93.753906 C 250.277344 93.210938 251.648438 92.761719 253.050781 92.40625 C 254.457031 92.050781 255.878906 91.792969 257.316406 91.636719 C 258.753906 91.476562 260.199219 91.417969 261.644531 91.460938 C 263.09375 91.5 264.53125 91.640625 265.957031 91.882812 C 267.386719 92.121094 268.792969 92.457031 270.171875 92.894531 C 271.496094 93.226562 272.628906 93.890625 273.574219 94.875 C 275.484375 97.15625 274.320312 100.765625 272.257812 102.902344 C 268.441406 106.855469 262.433594 107.789062 256.957031 107.363281 C 251.480469 106.9375 246.117188 105.394531 240.628906 105.289062 C 236.777344 105.296875 232.972656 105.71875 229.21875 106.566406 " fill-opacity="1" fill-rule="nonzero"/><path fill="#4caf50" d="M 187.722656 157.582031 C 184.835938 148.855469 182.691406 139.945312 181.292969 130.859375 C 179.902344 121.785156 179.253906 112.65625 179.339844 103.472656 C 179.414062 94.289062 180.210938 85.167969 181.738281 76.109375 C 183.269531 67.082031 185.515625 58.238281 188.46875 49.574219 C 191.4375 40.882812 195.109375 32.5 199.488281 24.425781 C 200.035156 23.390625 200.585938 22.414062 201.15625 21.417969 C 201.210938 21.296875 201.21875 21.175781 201.179688 21.046875 C 201.136719 20.921875 201.058594 20.824219 200.945312 20.757812 C 200.832031 20.691406 200.707031 20.671875 200.578125 20.699219 C 200.449219 20.726562 200.34375 20.792969 200.265625 20.902344 C 195.703125 28.929688 191.839844 37.285156 188.679688 45.964844 C 185.515625 54.636719 183.078125 63.511719 181.363281 72.582031 C 179.636719 81.660156 178.636719 90.816406 178.367188 100.050781 C 178.101562 109.277344 178.574219 118.464844 179.789062 127.613281 C 181 136.769531 182.960938 145.757812 185.679688 154.585938 C 186.011719 155.683594 186.363281 156.773438 186.71875 157.863281 C 186.925781 158.496094 187.929688 158.226562 187.753906 157.59375 Z M 187.722656 157.582031 " fill-opacity="1" fill-rule="nonzero"/><path fill="#4caf50" d="M 186.800781 32.589844 C 184.257812 29.859375 182.050781 26.878906 180.171875 23.652344 C 178.296875 20.425781 176.796875 17.035156 175.679688 13.472656 C 174.445312 9.550781 174.175781 4.34375 177.753906 2.300781 C 181.023438 0.414062 185.140625 2.683594 187.753906 5.414062 C 188.753906 6.492188 189.664062 7.640625 190.484375 8.855469 C 191.308594 10.074219 192.035156 11.347656 192.667969 12.671875 C 193.296875 14 193.824219 15.367188 194.246094 16.777344 C 194.667969 18.183594 194.984375 19.613281 195.1875 21.070312 C 195.394531 22.523438 195.488281 23.988281 195.472656 25.457031 C 195.457031 26.925781 195.328125 28.386719 195.089844 29.835938 C 194.851562 31.285156 194.507812 32.710938 194.050781 34.105469 C 193.597656 35.503906 193.039062 36.859375 192.382812 38.171875 " fill-opacity="1" fill-rule="nonzero"/><path fill="#4caf50" d="M 192.804688 36.085938 C 191.769531 33.671875 192.804688 30.902344 194.070312 28.597656 C 195.128906 26.707031 196.351562 24.933594 197.742188 23.277344 C 199.132812 21.617188 200.667969 20.105469 202.347656 18.738281 C 204.027344 17.371094 205.816406 16.175781 207.722656 15.148438 C 209.628906 14.121094 211.613281 13.28125 213.679688 12.632812 C 215.484375 12.074219 217.597656 11.710938 219.164062 12.777344 C 219.847656 13.351562 220.355469 14.050781 220.679688 14.882812 C 221.007812 15.714844 221.113281 16.570312 221 17.457031 C 220.691406 23.410156 215.277344 27.683594 210.183594 30.796875 C 204.558594 34.25 198.335938 37.425781 191.6875 37.257812 " fill-opacity="1" fill-rule="nonzero"/><path fill="#4caf50" d="M 180.980469 81.773438 C 173.855469 76.480469 166.40625 70.808594 162.972656 62.621094 C 161.746094 59.699219 161.261719 55.910156 163.53125 53.703125 C 165.328125 51.949219 168.324219 51.917969 170.554688 53.058594 C 172.773438 54.371094 174.480469 56.171875 175.679688 58.453125 C 177.59375 61.679688 178.960938 65.125 179.78125 68.789062 C 180.597656 72.449219 180.828125 76.148438 180.472656 79.882812 " fill-opacity="1" fill-rule="nonzero"/><path fill="#4caf50" d="M 180.265625 80.640625 C 180.738281 77.058594 181.921875 73.722656 183.8125 70.640625 C 187.285156 65.683594 191.339844 61.253906 195.96875 57.351562 C 198.285156 55.421875 200.898438 53.566406 203.90625 53.339844 C 204.632812 53.226562 205.300781 53.375 205.910156 53.785156 C 206.429688 54.285156 206.734375 54.890625 206.820312 55.609375 C 208.304688 62.40625 204.902344 69.625 199.558594 74.042969 C 194.21875 78.464844 187.171875 80.445312 180.242188 81.003906 " fill-opacity="1" fill-rule="nonzero"/><path fill="#4caf50" d="M 177.433594 127.03125 C 168.8125 124.921875 160.753906 121.492188 153.253906 116.753906 C 148.9375 114.023438 144.402344 109.78125 145.265625 104.738281 C 146.125 99.699219 151.964844 97.175781 156.933594 97.769531 C 161.71875 98.339844 166.03125 101.027344 169.496094 104.367188 C 171.03125 105.855469 172.417969 107.46875 173.664062 109.207031 C 174.90625 110.941406 175.988281 112.777344 176.90625 114.707031 C 177.820312 116.636719 178.5625 118.632812 179.121094 120.695312 C 179.683594 122.757812 180.058594 124.851562 180.242188 126.980469 " fill-opacity="1" fill-rule="nonzero"/><path fill="#4caf50" d="M 180.242188 124.085938 C 180.300781 122.453125 180.460938 120.832031 180.71875 119.222656 C 180.980469 117.609375 181.339844 116.019531 181.800781 114.453125 C 182.261719 112.886719 182.816406 111.355469 183.472656 109.859375 C 184.125 108.363281 184.867188 106.914062 185.703125 105.511719 C 186.539062 104.109375 187.457031 102.765625 188.460938 101.476562 C 189.464844 100.1875 190.546875 98.96875 191.703125 97.816406 C 192.859375 96.667969 194.082031 95.59375 195.375 94.59375 C 196.667969 93.597656 198.019531 92.683594 199.425781 91.855469 C 201.851562 90.464844 204.859375 89.335938 207.371094 90.578125 C 209.621094 91.710938 210.660156 94.511719 210.390625 97.023438 C 209.964844 99.558594 208.972656 101.851562 207.414062 103.898438 C 204.613281 108.070312 201.355469 111.851562 197.648438 115.246094 C 193.941406 118.636719 189.886719 121.542969 185.484375 123.960938 C 184.050781 124.738281 182.371094 125.488281 180.855469 124.863281 " fill-opacity="1" fill-rule="nonzero"/><path fill="#4caf50" d="M 129.207031 255.601562 C 137.152344 244.296875 147.410156 234.855469 158.253906 226.410156 C 169.527344 217.550781 181.324219 209.292969 193.085938 201.101562 C 205.21875 192.480469 217.777344 184.527344 230.753906 177.242188 C 243.960938 170.023438 257.679688 163.972656 271.914062 159.085938 C 286.148438 154.148438 300.691406 150.15625 315.265625 146.378906 C 317.070312 145.902344 318.886719 145.445312 320.691406 144.980469 C 320.835938 144.941406 320.945312 144.855469 321.019531 144.726562 C 321.089844 144.597656 321.109375 144.464844 321.070312 144.320312 C 321.03125 144.175781 320.949219 144.066406 320.820312 143.996094 C 320.691406 143.921875 320.554688 143.902344 320.410156 143.941406 C 305.648438 147.726562 290.898438 151.636719 276.429688 156.390625 C 262.121094 161.039062 248.289062 166.828125 234.933594 173.753906 C 221.722656 180.847656 208.972656 188.691406 196.6875 197.28125 C 184.726562 205.488281 172.828125 213.878906 161.3125 222.675781 C 150.335938 231.027344 139.746094 240.105469 131.230469 251.046875 C 130.191406 252.335938 129.257812 253.652344 128.3125 254.992188 C 127.929688 255.539062 128.832031 256.027344 129.207031 255.519531 Z M 129.207031 255.601562 " fill-opacity="1" fill-rule="nonzero"/><path fill="#4caf50" d="M 299.996094 149.949219 C 299.28125 147.300781 300.164062 144.523438 301.035156 141.9375 C 303.679688 134.148438 306.800781 125.796875 313.730469 121.378906 C 315.484375 120.125 317.4375 119.546875 319.59375 119.636719 C 320.113281 119.671875 320.613281 119.785156 321.09375 119.984375 C 321.574219 120.183594 322.015625 120.449219 322.410156 120.789062 C 322.804688 121.128906 323.132812 121.523438 323.402344 121.96875 C 323.667969 122.414062 323.859375 122.894531 323.96875 123.402344 C 324.03125 125.003906 323.597656 126.460938 322.671875 127.769531 C 320.019531 132.347656 316.792969 136.480469 312.988281 140.160156 C 309.1875 143.839844 304.953125 146.929688 300.285156 149.429688 " fill-opacity="1" fill-rule="nonzero"/><g clip-path="url(#d549088de8)"><path fill="#4caf50" d="M 297.921875 153.796875 C 305.917969 160.933594 316.34375 164.636719 326.613281 167.675781 C 327.972656 168.195312 329.371094 168.371094 330.816406 168.207031 C 331.167969 168.152344 331.503906 168.039062 331.816406 167.871094 C 332.132812 167.703125 332.410156 167.484375 332.648438 167.21875 C 332.890625 166.957031 333.078125 166.660156 333.214844 166.328125 C 333.351562 166 333.433594 165.65625 333.453125 165.300781 C 333.285156 164.332031 332.847656 163.507812 332.144531 162.820312 C 329.960938 160.035156 327.515625 157.5 324.808594 155.21875 C 323.480469 154.230469 322.070312 153.371094 320.582031 152.644531 C 319.09375 151.914062 317.550781 151.324219 315.957031 150.875 C 314.359375 150.425781 312.738281 150.128906 311.089844 149.976562 C 309.4375 149.820312 307.789062 149.820312 306.136719 149.96875 L 295.765625 150.703125 Z M 297.921875 153.796875 " fill-opacity="1" fill-rule="nonzero"/></g><path fill="#4caf50" d="M 258.054688 163.070312 C 258.449219 156.429688 260.132812 149.9375 261.832031 143.503906 C 263.96875 135.433594 266.707031 126.605469 273.84375 122.261719 C 274.910156 121.511719 276.09375 121.167969 277.394531 121.222656 C 277.859375 121.324219 278.300781 121.488281 278.714844 121.726562 C 279.132812 121.960938 279.5 122.25 279.828125 122.601562 C 280.152344 122.949219 280.417969 123.339844 280.625 123.769531 C 280.832031 124.199219 280.964844 124.652344 281.035156 125.125 C 281.257812 127.054688 281.03125 128.925781 280.347656 130.746094 C 279.351562 134.011719 278.117188 137.1875 276.644531 140.269531 C 275.175781 143.351562 273.484375 146.3125 271.578125 149.144531 C 269.667969 151.976562 267.5625 154.652344 265.253906 157.171875 C 262.949219 159.691406 260.46875 162.027344 257.816406 164.179688 " fill-opacity="1" fill-rule="nonzero"/><path fill="#4caf50" d="M 219.507812 183.671875 C 218.550781 176.746094 218.417969 169.800781 219.113281 162.84375 C 219.695312 157.105469 220.917969 151.222656 224.238281 146.515625 C 226.042969 143.953125 229.351562 141.660156 232.113281 143.132812 C 234.871094 144.605469 234.808594 148.453125 234.1875 151.429688 C 233.023438 157.378906 231.140625 163.089844 228.546875 168.566406 C 225.949219 174.042969 222.714844 179.113281 218.84375 183.777344 " fill-opacity="1" fill-rule="nonzero"/><path fill="#4caf50" d="M 238.792969 172.03125 C 240.882812 171.070312 243.074219 170.480469 245.363281 170.261719 C 247.65625 170.042969 249.917969 170.210938 252.152344 170.757812 C 256.605469 171.855469 260.835938 173.511719 264.851562 175.726562 C 266.863281 176.761719 269 177.882812 270.191406 179.78125 C 271.9375 182.488281 271.488281 186.007812 270.980469 189.171875 C 270.945312 189.648438 270.785156 190.082031 270.496094 190.46875 C 270.066406 190.824219 269.570312 191.003906 269.011719 190.996094 C 265.839844 191.226562 262.710938 190.964844 259.621094 190.210938 C 256.53125 189.453125 253.632812 188.238281 250.929688 186.566406 C 245.507812 183.183594 240.882812 178.929688 237.058594 173.808594 " fill-opacity="1" fill-rule="nonzero"/><path fill="#4caf50" d="M 162.183594 194.980469 C 158.914062 190.457031 156.378906 185.554688 154.585938 180.269531 C 152.789062 174.984375 151.8125 169.550781 151.65625 163.972656 C 151.5625 160.375 152.019531 156.347656 154.765625 154.023438 C 155.414062 153.40625 156.183594 153.09375 157.078125 153.082031 C 158.71875 153.164062 159.703125 154.875 160.328125 156.390625 C 161.523438 159.316406 162.488281 162.316406 163.222656 165.390625 C 163.953125 168.464844 164.441406 171.578125 164.691406 174.730469 C 164.941406 177.882812 164.941406 181.03125 164.703125 184.183594 C 164.460938 187.335938 163.976562 190.449219 163.253906 193.527344 " fill-opacity="1" fill-rule="nonzero"/><path fill="#4caf50" d="M 167.972656 218.082031 C 172.714844 221.019531 177.785156 223.191406 183.179688 224.609375 C 188.574219 226.023438 194.058594 226.613281 199.632812 226.378906 C 203.222656 226.222656 207.214844 225.488281 209.34375 222.582031 C 209.914062 221.894531 210.171875 221.101562 210.121094 220.207031 C 209.921875 218.589844 208.148438 217.71875 206.59375 217.199219 C 203.59375 216.207031 200.53125 215.453125 197.414062 214.933594 C 194.296875 214.417969 191.15625 214.144531 187.996094 214.113281 C 184.832031 214.082031 181.691406 214.296875 178.5625 214.757812 C 175.433594 215.214844 172.359375 215.910156 169.339844 216.847656 " fill-opacity="1" fill-rule="nonzero"/><path fill="#4caf50" d="M 133.273438 239.472656 C 131.839844 236.601562 130.628906 233.640625 129.644531 230.589844 C 128.660156 227.535156 127.914062 224.425781 127.402344 221.261719 C 126.890625 218.09375 126.625 214.90625 126.597656 211.699219 C 126.570312 208.492188 126.785156 205.300781 127.246094 202.125 C 127.304688 200.726562 127.8125 199.507812 128.761719 198.476562 C 129.132812 198.210938 129.539062 198.019531 129.980469 197.894531 C 130.417969 197.773438 130.867188 197.726562 131.324219 197.761719 C 131.777344 197.792969 132.214844 197.902344 132.632812 198.082031 C 133.050781 198.265625 133.425781 198.515625 133.761719 198.828125 C 135.085938 200.15625 135.925781 201.742188 136.269531 203.589844 C 137.191406 207.746094 137.597656 211.957031 137.484375 216.214844 C 137.546875 225.105469 137.234375 234.003906 136.550781 242.863281 " fill-opacity="1" fill-rule="nonzero"/><path fill="#4caf50" d="M 90.867188 359.980469 L 81.238281 291.359375 C 78.125 268.734375 74.589844 246.121094 72.546875 223.363281 C 71.347656 210.628906 70.816406 197.871094 70.957031 185.082031 C 70.957031 184.941406 70.90625 184.816406 70.804688 184.714844 C 70.707031 184.613281 70.582031 184.5625 70.441406 184.5625 C 70.296875 184.5625 70.175781 184.613281 70.074219 184.714844 C 69.972656 184.816406 69.921875 184.941406 69.921875 185.082031 C 69.570312 208.027344 71.996094 230.882812 74.960938 253.546875 C 77.929688 276.214844 81.28125 299.003906 84.464844 321.734375 L 89.859375 360.199219 C 89.953125 360.863281 90.957031 360.582031 90.898438 359.929688 Z M 90.867188 359.980469 " fill-opacity="1" fill-rule="nonzero"/><path fill="#4caf50" d="M 69.597656 189.179688 C 68.011719 183.238281 65.648438 175.558594 65.773438 169.410156 C 65.726562 166.09375 66.265625 162.878906 67.390625 159.761719 C 67.960938 158.203125 68.800781 156.8125 69.914062 155.585938 C 71.027344 154.359375 72.328125 153.382812 73.820312 152.664062 C 74.753906 152.207031 75.738281 151.980469 76.777344 151.980469 C 77.816406 151.980469 78.800781 152.207031 79.734375 152.664062 C 83.074219 154.542969 83.167969 159.285156 82.472656 163.039062 C 81.503906 167.808594 79.992188 172.402344 77.941406 176.820312 C 75.890625 181.234375 73.355469 185.351562 70.335938 189.171875 " fill-opacity="1" fill-rule="nonzero"/><g clip-path="url(#46ee872c97)"><path fill="#4caf50" d="M 71.445312 221.453125 C 66.105469 219.648438 59.828125 214.699219 55.492188 211.078125 C 49.464844 206.070312 43.042969 200.375 41.789062 192.636719 C 41.613281 191.949219 41.660156 191.277344 41.921875 190.621094 C 42.824219 188.808594 45.5625 189.585938 47.296875 190.621094 C 52.804688 193.972656 58.457031 197.4375 62.328125 202.59375 C 64.609375 205.917969 66.46875 209.460938 67.910156 213.226562 L 71.445312 221.464844 " fill-opacity="1" fill-rule="nonzero"/></g><path fill="#4caf50" d="M 71.425781 218.734375 C 70.078125 212.800781 72.460938 206.785156 74.796875 201.191406 C 78.28125 192.988281 83.179688 184.242188 91.683594 181.609375 C 92.34375 181.324219 93 181.324219 93.65625 181.609375 C 94.082031 181.902344 94.382812 182.292969 94.558594 182.78125 C 96.632812 187.355469 95.761719 192.851562 93.425781 197.304688 C 91.09375 201.753906 87.484375 205.394531 83.925781 208.941406 L 71.105469 221.765625 C 71.300781 221.164062 71.21875 219.335938 71.425781 218.734375 " fill-opacity="1" fill-rule="nonzero"/><path fill="#4caf50" d="M 75.355469 256.660156 C 65.253906 254.210938 57.785156 245.933594 51.03125 238.121094 C 48.832031 235.582031 46.488281 232.480469 47.277344 229.222656 C 47.351562 228.703125 47.566406 228.25 47.917969 227.863281 C 48.851562 226.972656 50.367188 227.335938 51.558594 227.8125 C 53.074219 228.433594 54.546875 229.148438 55.972656 229.949219 C 57.402344 230.746094 58.777344 231.632812 60.101562 232.597656 C 61.421875 233.5625 62.679688 234.605469 63.878906 235.722656 C 65.074219 236.839844 66.199219 238.027344 67.253906 239.28125 C 68.308594 240.535156 69.28125 241.847656 70.175781 243.21875 C 71.074219 244.589844 71.882812 246.007812 72.609375 247.476562 C 73.332031 248.945312 73.964844 250.453125 74.507812 251.996094 C 75.050781 253.542969 75.5 255.113281 75.855469 256.710938 " fill-opacity="1" fill-rule="nonzero"/><path fill="#4caf50" d="M 77.703125 255.976562 C 91.695312 251.234375 101.863281 237.003906 101.863281 222.230469 C 101.945312 221.605469 101.898438 220.992188 101.71875 220.386719 C 101.539062 219.78125 101.238281 219.242188 100.824219 218.765625 C 99.257812 217.457031 96.902344 218.703125 95.335938 220.019531 C 92.707031 222.261719 90.300781 224.71875 88.121094 227.398438 C 85.941406 230.074219 84.019531 232.929688 82.359375 235.957031 C 80.695312 238.984375 79.324219 242.140625 78.238281 245.417969 C 77.152344 248.695312 76.371094 252.046875 75.894531 255.46875 L 75.480469 257.222656 Z M 77.703125 255.976562 " fill-opacity="1" fill-rule="nonzero"/><path fill="#4caf50" d="M 84.164062 314.460938 C 78.011719 310.75 72.324219 306.425781 67.097656 301.496094 C 62.234375 296.898438 57.566406 291.183594 57.472656 284.492188 C 57.347656 283.191406 57.691406 282.027344 58.511719 281.007812 C 60.472656 279.015625 63.820312 280.769531 65.863281 282.675781 C 68.09375 284.773438 70.15625 287.023438 72.046875 289.429688 C 73.941406 291.835938 75.644531 294.367188 77.160156 297.023438 C 78.671875 299.683594 79.980469 302.441406 81.085938 305.296875 C 82.1875 308.148438 83.074219 311.070312 83.738281 314.058594 " fill-opacity="1" fill-rule="nonzero"/><path fill="#4caf50" d="M 83.726562 313.269531 C 82.816406 303.332031 85.191406 293.394531 88.15625 283.859375 C 89.289062 280.238281 91.34375 275.964844 95.140625 275.832031 C 97.972656 275.738281 100.324219 278.300781 100.957031 281.019531 C 101.589844 283.734375 100.792969 286.660156 99.839844 289.316406 C 98.125 294.121094 95.851562 298.644531 93.019531 302.890625 C 90.183594 307.132812 86.878906 310.964844 83.09375 314.390625 " fill-opacity="1" fill-rule="nonzero"/><path fill="#4caf50" d="M 88.230469 373.414062 C 94.011719 368.3125 99.992188 363.445312 106.175781 358.820312 C 112.359375 354.191406 118.683594 349.835938 125.148438 345.75 C 131.644531 341.640625 138.292969 337.796875 145.097656 334.214844 C 151.902344 330.632812 158.820312 327.320312 165.84375 324.285156 C 172.929688 321.246094 180.152344 318.488281 187.453125 315.988281 L 190.214844 315.074219 C 190.847656 314.867188 190.574219 313.859375 189.945312 314.035156 C 182.5625 316.445312 175.304688 319.144531 168.160156 322.136719 C 161.015625 325.132812 154.039062 328.371094 147.234375 331.847656 C 140.320312 335.394531 133.566406 339.199219 126.976562 343.257812 C 120.386719 347.320312 113.988281 351.636719 107.785156 356.214844 C 101.558594 360.792969 95.519531 365.609375 89.660156 370.667969 L 87.472656 372.574219 C 86.976562 373.019531 87.710938 373.757812 88.210938 373.3125 Z M 88.230469 373.414062 " fill-opacity="1" fill-rule="nonzero"/><path fill="#4caf50" d="M 150.347656 330.449219 C 150.496094 328.3125 150.753906 326.191406 151.121094 324.082031 C 151.492188 321.972656 151.96875 319.886719 152.554688 317.828125 C 153.140625 315.769531 153.832031 313.746094 154.628906 311.761719 C 155.425781 309.773438 156.320312 307.832031 157.320312 305.9375 C 158.320312 304.042969 159.414062 302.207031 160.601562 300.429688 C 161.792969 298.648438 163.070312 296.933594 164.441406 295.289062 C 165.808594 293.640625 167.257812 292.070312 168.789062 290.574219 C 170.320312 289.078125 171.925781 287.667969 173.605469 286.339844 C 175.035156 285.21875 176.996094 284.121094 178.585938 285.03125 C 179.953125 285.832031 180.203125 287.699219 180.121094 289.285156 C 179.664062 298.839844 173.460938 307.074219 167.039062 314.183594 C 161.558594 320.1875 155.738281 325.84375 149.578125 331.152344 " fill-opacity="1" fill-rule="nonzero"/><path fill="#4caf50" d="M 109.714844 355.636719 C 108.3125 350.644531 108.914062 345.332031 109.527344 340.1875 C 110.867188 329.035156 112.453125 317.253906 119.445312 308.464844 C 121.738281 305.601562 124.695312 303.0625 128.273438 302.242188 C 128.621094 302.113281 128.984375 302.078125 129.351562 302.132812 C 129.71875 302.191406 130.050781 302.335938 130.347656 302.5625 C 130.660156 302.988281 130.808594 303.464844 130.792969 303.996094 C 131.125 309.453125 129.238281 314.773438 127.378906 319.917969 C 123.042969 331.929688 118.148438 345.964844 109.652344 355.511719 " fill-opacity="1" fill-rule="nonzero"/><path fill="#4caf50" d="M 106.890625 357.90625 C 113.644531 353.839844 124.527344 347.90625 136.167969 344.421875 C 139.15625 343.527344 144.175781 342.199219 149.125 344.347656 C 149.394531 344.460938 155.015625 346.972656 154.839844 350.210938 C 154.695312 352.761719 151.054688 354.441406 149.414062 355.210938 C 138.613281 360.210938 116.746094 358.664062 106.882812 357.894531 " fill-opacity="1" fill-rule="nonzero"/><path fill="#4caf50" d="M 156.175781 328.488281 C 162.976562 325.542969 170.003906 323.308594 177.257812 321.785156 C 180.273438 321.152344 183.832031 320.75 186.042969 322.9375 C 188.253906 325.125 187.890625 329.066406 185.898438 331.476562 C 183.90625 333.882812 180.761719 335.03125 177.714844 335.6875 C 175.496094 336.148438 173.257812 336.398438 170.992188 336.445312 C 168.730469 336.492188 166.480469 336.328125 164.246094 335.957031 C 162.015625 335.585938 159.835938 335.015625 157.707031 334.238281 C 155.578125 333.464844 153.542969 332.503906 151.59375 331.351562 C 150.886719 330.925781 150.191406 329.804688 150.9375 329.460938 " fill-opacity="1" fill-rule="nonzero"/></svg>