<svg xmlns="http://www.w3.org/2000/svg" xmlns:xlink="http://www.w3.org/1999/xlink" width="500" zoomAndPan="magnify" viewBox="0 0 375 374.999991" height="500" preserveAspectRatio="xMidYMid meet" version="1.0"><defs><clipPath id="1d272be513"><path d="M 97.726562 22.363281 L 276.976562 22.363281 L 276.976562 352.363281 L 97.726562 352.363281 Z M 97.726562 22.363281 " clip-rule="nonzero"/></clipPath></defs><path fill="#3b893f" d="M 177.972656 151.804688 C 170.371094 112.066406 177.230469 81.339844 194.605469 44.800781 C 201.011719 62.496094 200.644531 82.09375 196.640625 100.484375 C 192.636719 118.875 185.160156 136.304688 177.519531 153.507812 Z M 194.539062 274.691406 C 195.054688 272.03125 195.640625 269.382812 196.285156 266.753906 C 195.867188 267.113281 195.449219 267.472656 195.03125 267.832031 Z M 196.285156 266.753906 C 201.46875 262.308594 206.652344 257.863281 211.832031 253.417969 C 222.03125 244.667969 232.328125 235.816406 240.316406 225.011719 C 251.402344 210.019531 257.628906 191.492188 257.851562 172.847656 C 227.457031 195.929688 205.398438 229.710938 196.285156 266.753906 Z M 157.570312 233.164062 C 144.082031 223.367188 126.90625 218.878906 115.042969 207.164062 C 116.628906 220.640625 123.542969 233.042969 132.40625 243.316406 C 141.269531 253.589844 152.058594 261.988281 162.773438 270.316406 C 171.492188 277.09375 180.804688 284.125 191.773438 285.414062 L 193.503906 285.386719 C 184.734375 265.882812 174.875 245.730469 157.570312 233.164062 Z M 157.570312 233.164062 " fill-opacity="1" fill-rule="nonzero"/><g clip-path="url(#1d272be513)"><path fill="#4caf50" d="M 277.207031 243.449219 C 276.898438 257.699219 268.46875 270.792969 257.589844 280.003906 C 246.710938 289.210938 233.507812 295.148438 220.496094 300.964844 C 211.5 304.984375 202.5 309.007812 193.503906 313.027344 C 193.285156 314.628906 193.058594 316.230469 192.820312 317.828125 C 192.378906 320.738281 191.957031 323.652344 191.402344 326.542969 L 190.621094 330.886719 L 190.230469 333.0625 L 189.777344 335.222656 C 189.164062 338.101562 188.609375 340.992188 187.945312 343.859375 C 187.316406 346.734375 186.539062 349.589844 184.207031 352.019531 C 183.65625 352.59375 182.746094 352.613281 182.175781 352.0625 C 181.992188 351.886719 181.867188 351.671875 181.796875 351.445312 L 181.785156 351.40625 C 180.808594 348.160156 181.386719 345.335938 182.117188 342.53125 C 182.777344 339.714844 183.328125 336.871094 183.941406 334.042969 L 184.390625 331.917969 L 184.78125 329.785156 L 185.558594 325.511719 C 186.109375 322.667969 186.53125 319.804688 186.972656 316.945312 C 187.011719 316.671875 187.050781 316.402344 187.089844 316.132812 L 186.640625 316.414062 C 166.746094 310.859375 146.09375 304.902344 130.695312 291.132812 C 124.828125 285.882812 119.925781 279.65625 115.261719 273.316406 C 109.566406 265.578125 104.183594 257.613281 99.121094 249.449219 C 135.484375 257.542969 168.152344 280.964844 187.585938 312.730469 C 188.996094 302.667969 189.976562 292.546875 190.527344 282.398438 C 191.183594 270.835938 191.28125 259.238281 190.835938 247.65625 C 190.644531 242.65625 190.34375 237.660156 189.953125 232.671875 C 173.992188 222.691406 160.234375 209.515625 146.632812 196.457031 C 132.726562 183.105469 118.136719 168.574219 114.144531 149.710938 C 146.246094 159.664062 175.328125 190.679688 189.078125 223.027344 C 188.734375 219.683594 188.351562 216.339844 187.929688 213.007812 C 186.453125 201.5 184.453125 190.0625 182 178.714844 C 181.292969 175.421875 180.539062 172.136719 179.75 168.863281 C 161.148438 163.691406 144.492188 152.558594 131.046875 138.679688 C 117.210938 124.398438 106.59375 107.277344 97.8125 89.4375 C 128.578125 103.378906 159.546875 122.847656 175.207031 151.648438 C 174.566406 149.429688 173.917969 147.210938 173.246094 145 C 170.714844 136.59375 167.929688 128.257812 164.894531 120.011719 C 160.820312 116.359375 157.632812 110.53125 154.519531 106.523438 C 135.558594 82.132812 122.902344 52.882812 118.101562 22.363281 C 136.398438 29.203125 150.179688 45.230469 157.960938 63.148438 C 164.78125 78.859375 165.480469 96.324219 166.210938 113.542969 C 170.261719 123.464844 173.96875 133.535156 177.292969 143.734375 C 180.894531 154.902344 184.046875 166.21875 186.703125 177.660156 C 188.277344 184.445312 189.664062 191.273438 190.878906 198.132812 C 193.328125 163.875 205.414062 130.304688 225.625 102.519531 C 230.519531 122.628906 227.023438 144.050781 219.539062 163.34375 C 212.84375 180.597656 203.101562 196.445312 193.09375 212.039062 C 193.109375 212.128906 193.121094 212.21875 193.132812 212.304688 C 196.433594 235.582031 197.503906 259.195312 196.351562 282.703125 C 196.050781 288.5 195.609375 294.289062 195.035156 300.0625 C 195.535156 299.464844 196.042969 298.878906 196.550781 298.304688 C 218.359375 273.738281 246.347656 254.703125 277.207031 243.449219 Z M 277.207031 243.449219 " fill-opacity="1" fill-rule="nonzero"/></g><path fill="#c2dda8" d="M 216.277344 144.28125 C 212.5625 156.382812 208.117188 168.253906 203.003906 179.835938 C 202.574219 180.8125 201.148438 179.96875 201.574219 179 C 203.015625 175.734375 204.402344 172.445312 205.734375 169.132812 C 210.425781 157.453125 214.417969 145.496094 217.707031 133.34375 C 217.984375 132.316406 219.582031 132.753906 219.304688 133.785156 C 218.351562 137.300781 217.347656 140.800781 216.277344 144.28125 Z M 140.632812 173.519531 C 138.097656 170.582031 135.5625 167.644531 133.027344 164.707031 C 132.328125 163.894531 131.160156 165.074219 131.855469 165.878906 C 140.746094 176.179688 149.636719 186.484375 158.527344 196.785156 C 161.0625 199.726562 163.597656 202.664062 166.132812 205.601562 C 166.832031 206.410156 168 205.234375 167.304688 204.429688 C 158.414062 194.125 149.523438 183.820312 140.632812 173.519531 Z M 149.066406 80.054688 C 150.550781 83.617188 152.035156 87.179688 153.515625 90.746094 C 153.921875 91.714844 155.523438 91.289062 155.113281 90.304688 C 149.914062 77.804688 144.714844 65.308594 139.515625 52.808594 C 138.03125 49.246094 136.550781 45.679688 135.066406 42.117188 C 134.664062 41.144531 133.058594 41.570312 133.46875 42.558594 C 138.667969 55.054688 143.867188 67.554688 149.066406 80.054688 Z M 152.425781 144.324219 C 153.09375 145.15625 154.261719 143.976562 153.597656 143.152344 C 145.734375 133.367188 137.210938 124.125 128.09375 115.496094 C 127.316406 114.765625 126.144531 115.933594 126.921875 116.667969 C 136.039062 125.296875 144.5625 134.539062 152.425781 144.324219 Z M 253.390625 264.285156 C 243.101562 273.292969 231.992188 281.351562 220.230469 288.328125 C 216.910156 290.296875 213.542969 292.175781 210.128906 293.96875 C 209.183594 294.464844 210.023438 295.898438 210.964844 295.402344 C 223.15625 288.992188 234.738281 281.464844 245.554688 272.945312 C 248.621094 270.527344 251.625 268.027344 254.5625 265.457031 C 255.367188 264.75 254.191406 263.582031 253.390625 264.285156 Z M 157.660156 293.300781 C 147.195312 287.195312 137.636719 279.632812 129.285156 270.855469 C 128.546875 270.082031 127.378906 271.253906 128.113281 272.027344 C 136.558594 280.898438 146.246094 288.558594 156.824219 294.730469 C 157.746094 295.269531 158.582031 293.839844 157.660156 293.300781 Z M 157.660156 293.300781 " fill-opacity="1" fill-rule="nonzero"/></svg>