<svg width="1368" height="350" viewBox="0 0 1368 350" fill="none" xmlns="http://www.w3.org/2000/svg">
<g clip-path="url(#clip0_101_32)">
<mask id="mask0_101_32" style="mask-type:luminance" maskUnits="userSpaceOnUse" x="1134" y="100" width="234" height="250">
<path d="M1134 100H1368V350H1134V100Z" fill="white"/>
</mask>
<g mask="url(#mask0_101_32)">
<path d="M1228.26 344.457C1231.78 323.373 1232.9 298.737 1233.25 277.852C1233.25 277.814 1233.25 277.777 1233.23 277.742C1233.21 277.708 1233.19 277.678 1233.16 277.653C1233.13 277.629 1233.1 277.611 1233.06 277.602C1233.02 277.592 1232.99 277.591 1232.95 277.598C1217.63 280.465 1195.14 276.606 1194.39 253.402C1194.39 253.351 1194.37 253.301 1194.34 253.26C1194.31 253.218 1194.27 253.186 1194.22 253.17C1194.17 253.152 1194.12 253.15 1194.07 253.163C1194.02 253.175 1193.97 253.203 1193.94 253.241C1183.31 265.253 1130.98 255.195 1134.14 204.18C1134.85 192.68 1146.29 171.306 1165.91 172.495C1165.95 172.496 1165.99 172.489 1166.02 172.473C1166.06 172.458 1166.09 172.435 1166.12 172.406C1166.14 172.376 1166.16 172.34 1166.17 172.302C1166.18 172.263 1166.18 172.223 1166.17 172.184C1152.51 112.333 1209.84 111.156 1224.57 122.927C1224.6 122.95 1224.63 122.967 1224.67 122.976C1224.7 122.986 1224.74 122.988 1224.78 122.982C1224.82 122.976 1224.85 122.963 1224.88 122.944C1224.91 122.924 1224.93 122.899 1224.95 122.869C1250.16 84.713 1313.72 96.314 1308.66 142.741C1308.65 142.789 1308.66 142.837 1308.68 142.881C1308.7 142.924 1308.73 142.961 1308.78 142.986C1308.82 143.011 1308.86 143.024 1308.91 143.024C1308.96 143.024 1309.01 143.009 1309.05 142.983C1342.64 121.371 1372.09 165.173 1350.12 190.691C1350.09 190.718 1350.07 190.753 1350.06 190.79C1350.05 190.828 1350.05 190.868 1350.06 190.906C1350.07 190.944 1350.08 190.98 1350.11 191.011C1350.13 191.043 1350.16 191.068 1350.2 191.083C1361.01 196.488 1366.4 206.222 1367.74 216.769C1370.95 241.92 1344.24 273.174 1310.85 257.713C1310.81 257.694 1310.77 257.686 1310.72 257.69C1310.68 257.694 1310.64 257.711 1310.6 257.737C1310.56 257.762 1310.53 257.797 1310.51 257.839C1310.49 257.88 1310.49 257.925 1310.49 257.97C1311.61 273.169 1288.77 284.884 1270.47 275.803C1270.43 275.784 1270.38 275.774 1270.34 275.775C1270.3 275.776 1270.26 275.789 1270.22 275.812C1270.18 275.833 1270.15 275.864 1270.13 275.903C1270.1 275.938 1270.09 275.982 1270.09 276.026C1269.82 298.034 1270.05 323.356 1273.95 344.37C1274.08 345.058 1274.05 345.766 1273.87 346.442C1273.69 347.119 1273.36 347.749 1272.91 348.285C1272.46 348.822 1271.9 349.254 1271.26 349.549C1270.62 349.845 1269.92 349.999 1269.22 350H1233.01C1232.31 350 1231.63 349.85 1230.99 349.56C1230.36 349.268 1229.8 348.845 1229.34 348.319C1228.89 347.792 1228.56 347.174 1228.37 346.507C1228.19 345.839 1228.15 345.14 1228.26 344.457Z" fill="#66DC6F"/>
</g>
<path d="M821.642 213.758C833.446 210.417 911.507 185.902 871.869 133.565C837.171 87.75 800.992 139.646 792.134 153.993C792.099 154.049 792.044 154.09 791.981 154.107C791.917 154.125 791.849 154.119 791.79 154.09C791.731 154.06 791.685 154.01 791.662 153.948C791.638 153.887 791.638 153.818 791.662 153.757C800.225 132.701 836.457 29.773 715.677 53.539C625.028 71.374 665.14 164.239 667.748 170.037C667.763 170.072 667.771 170.11 667.771 170.148C667.77 170.186 667.761 170.224 667.744 170.259C667.727 170.293 667.702 170.323 667.673 170.347C667.643 170.371 667.608 170.388 667.571 170.397C662.822 171.637 604.278 188.492 643.392 251.107C671.096 295.456 729.198 270.343 734.356 268C734.396 267.981 734.44 267.973 734.484 267.976C734.55 267.979 734.613 268.008 734.659 268.057C734.705 268.105 734.73 268.169 734.73 268.236C734.836 275.893 734.066 296.576 726.829 344.281C726.716 344.986 726.757 345.706 726.951 346.393C727.144 347.08 727.485 347.717 727.949 348.259C728.414 348.803 728.991 349.24 729.641 349.541C730.291 349.841 730.998 349.998 731.714 350H771.704C772.42 349.998 773.127 349.841 773.777 349.541C774.426 349.24 775.004 348.803 775.469 348.259C775.933 347.717 776.273 347.08 776.467 346.393C776.66 345.706 776.702 344.986 776.589 344.281C768.613 291.698 768.491 271.945 768.741 266.278C768.743 266.233 768.757 266.189 768.781 266.15C768.805 266.112 768.838 266.08 768.878 266.059C768.918 266.037 768.963 266.026 769.008 266.026C769.053 266.027 769.098 266.039 769.137 266.062C774.207 268.907 829.486 298.978 849.544 269.799C882.327 222.107 831.296 215.148 821.688 214.274C821.627 214.267 821.57 214.24 821.528 214.196C821.485 214.153 821.458 214.096 821.452 214.035C821.447 213.974 821.463 213.914 821.497 213.863C821.532 213.813 821.583 213.776 821.642 213.758Z" fill="#3B893F"/>
<path d="M981.744 123.338C977.88 118.228 971.182 116.672 965.277 117.82C953.477 120.116 941.453 127.724 936.346 131.255C936.284 131.309 936.204 131.337 936.122 131.332C936.041 131.327 935.965 131.29 935.91 131.229C935.856 131.167 935.828 131.087 935.833 131.005C935.838 130.924 935.875 130.847 935.937 130.793C944.088 121.921 970.615 93.477 963.463 78.071C960.596 71.877 952.815 70.472 946.533 72.099C936.072 74.793 921.636 83.735 918.026 86.037C917.984 86.063 917.938 86.0787 917.889 86.0829C917.84 86.087 917.791 86.0795 917.746 86.0609C917.701 86.0423 917.661 86.0132 917.63 85.976C917.598 85.9388 917.576 85.8945 917.565 85.847C917.55 85.7837 917.555 85.7172 917.58 85.657C919.2 81.8 925.271 66.375 926.553 48.977C928.396 23.922 923.604 -2.60899 894.453 0.207006C844.082 5.07301 872.883 78.184 876.194 86.189C876.221 86.2465 876.23 86.3109 876.219 86.3735C876.208 86.436 876.178 86.4938 876.134 86.539C876.089 86.5842 876.031 86.6143 875.969 86.6251C875.906 86.6358 875.842 86.6267 875.785 86.599C872.619 85.23 859.297 80.963 848.691 79.552C833.334 77.498 826.399 88.642 836.129 100.852C848.339 116.177 859.766 128.277 862.76 131.396C862.806 131.444 862.836 131.506 862.845 131.573C862.853 131.639 862.84 131.706 862.808 131.765C862.774 131.823 862.722 131.869 862.66 131.895C862.598 131.92 862.529 131.925 862.465 131.908C859.189 131.086 848.717 127.973 836.735 127.827C826.395 127.702 820.469 132.824 819.992 140.613C818.87 159.172 844.278 177.731 885.003 213.892C885.058 213.941 885.094 214.008 885.103 214.081C886.221 222.423 889.579 259.494 876.362 342.918C876.232 343.739 876.281 344.578 876.505 345.378C876.729 346.178 877.124 346.92 877.662 347.554C878.2 348.185 878.868 348.693 879.62 349.041C880.373 349.389 881.192 349.571 882.022 349.572H921.593C922.422 349.572 923.242 349.391 923.995 349.043C924.748 348.694 925.416 348.186 925.953 347.554C926.49 346.92 926.885 346.178 927.109 345.378C927.334 344.578 927.383 343.739 927.253 342.918C914.034 259.486 917.394 222.415 918.512 214.077C918.521 214.004 918.558 213.936 918.614 213.888C921.614 211.309 998.198 145.105 981.744 123.338Z" fill="#4DC052"/>
<path d="M715.234 155.718C711.927 151.339 706.196 150.004 701.143 150.988C691.046 152.956 680.758 159.478 676.389 162.504C676.363 162.527 676.333 162.545 676.3 162.556C676.267 162.567 676.232 162.572 676.197 162.57C676.163 162.568 676.129 162.559 676.098 162.544C676.066 162.529 676.038 162.508 676.015 162.481C675.992 162.455 675.975 162.425 675.963 162.392C675.952 162.36 675.947 162.325 675.949 162.29C675.951 162.255 675.96 162.221 675.975 162.19C675.991 162.159 676.012 162.131 676.038 162.108C683.013 154.504 705.711 130.124 699.591 116.918C697.138 111.609 690.48 110.405 685.105 111.799C676.154 114.109 663.802 121.773 660.713 123.746C660.678 123.769 660.637 123.782 660.596 123.786C660.554 123.79 660.512 123.783 660.473 123.768C660.435 123.752 660.4 123.727 660.373 123.695C660.346 123.663 660.327 123.625 660.318 123.584C660.305 123.529 660.309 123.472 660.331 123.42C661.717 120.115 666.912 106.893 668.008 91.98C669.585 70.504 665.485 47.763 640.541 50.177C597.44 54.349 622.085 117.015 624.918 123.876C624.935 123.913 624.944 123.953 624.943 123.994C624.942 124.034 624.932 124.074 624.914 124.111C624.895 124.147 624.868 124.178 624.836 124.202C624.803 124.227 624.765 124.243 624.725 124.25C624.672 124.26 624.616 124.252 624.568 124.228C621.859 123.054 610.46 119.396 601.384 118.187C588.244 116.427 582.31 125.978 590.635 136.445C601.083 149.58 610.861 159.952 613.423 162.626C613.463 162.667 613.489 162.72 613.496 162.777C613.504 162.834 613.492 162.892 613.464 162.942C613.435 162.992 613.391 163.03 613.338 163.052C613.285 163.074 613.226 163.079 613.171 163.064C610.367 162.36 601.407 159.691 591.154 159.566C582.306 159.459 577.236 163.849 576.827 170.526C575.867 186.433 597.609 202.341 632.456 233.336C632.503 233.378 632.533 233.436 632.541 233.498C633.498 240.648 636.371 272.423 625.062 343.93C624.95 344.633 624.992 345.352 625.184 346.038C625.375 346.724 625.713 347.36 626.174 347.903C626.634 348.444 627.205 348.879 627.849 349.177C628.493 349.476 629.194 349.631 629.904 349.633H663.765C664.475 349.632 665.176 349.477 665.82 349.178C666.464 348.88 667.036 348.445 667.495 347.903C667.956 347.36 668.294 346.724 668.486 346.038C668.678 345.353 668.72 344.633 668.608 343.93C657.296 272.416 660.171 240.641 661.128 233.495C661.136 233.432 661.168 233.374 661.216 233.333C663.782 231.122 729.313 174.375 715.234 155.718Z" fill="#1C991C"/>
<path d="M1161.11 190.018C1161.11 147.521 1122.93 132.046 1114.41 113.237C1111.8 107.457 1119.47 99.852 1119.56 88.226C1119.71 70 1107.85 51.838 1080.02 51.838C1058.13 51.838 1048.57 63.951 1045.8 78.776C1042.72 95.293 1050.15 107.277 1051.24 111.122C1054.69 123.178 1006.82 145.665 1005.9 191.277C1005.08 231.572 1055.78 260.226 1067.45 266.282C1067.49 266.304 1067.53 266.338 1067.56 266.38C1067.58 266.421 1067.6 266.469 1067.6 266.519C1068 284.53 1067.46 313.556 1061.88 342.048C1061.74 342.792 1061.76 343.558 1061.95 344.292C1062.13 345.026 1062.48 345.711 1062.96 346.294C1063.44 346.877 1064.05 347.347 1064.73 347.671C1065.42 347.994 1066.17 348.162 1066.92 348.162H1100.08C1100.83 348.162 1101.58 347.994 1102.27 347.671C1102.95 347.347 1103.56 346.877 1104.04 346.294C1104.52 345.711 1104.87 345.026 1105.05 344.292C1105.24 343.558 1105.26 342.792 1105.12 342.048C1099.55 313.602 1099 284.642 1099.4 266.62C1099.4 266.57 1099.42 266.522 1099.44 266.48C1099.47 266.44 1099.51 266.407 1099.55 266.383C1110.49 260.96 1161.11 233.546 1161.11 190.018Z" fill="#1C991C"/>
<mask id="mask1_101_32" style="mask-type:luminance" maskUnits="userSpaceOnUse" x="454" y="150" width="187" height="200">
<path d="M454 150H641V350H454V150Z" fill="white"/>
</mask>
<g mask="url(#mask1_101_32)">
<path d="M529.326 345.566C532.14 328.698 533.036 308.989 533.318 292.281C533.318 292.251 533.312 292.221 533.3 292.194C533.287 292.166 533.268 292.142 533.245 292.122C533.221 292.103 533.194 292.089 533.165 292.081C533.135 292.073 533.105 292.072 533.075 292.078C520.834 294.372 502.862 291.285 502.259 272.721C502.258 272.68 502.244 272.641 502.22 272.608C502.195 272.575 502.162 272.55 502.123 272.536C502.084 272.522 502.043 272.52 502.003 272.53C501.963 272.54 501.927 272.562 501.9 272.593C493.402 282.202 451.584 274.156 454.11 233.344C454.68 224.144 463.819 207.045 479.497 207.996C479.529 207.998 479.561 207.993 479.59 207.98C479.619 207.968 479.646 207.949 479.666 207.925C479.687 207.901 479.702 207.872 479.709 207.841C479.717 207.81 479.717 207.778 479.71 207.747C468.791 159.866 514.607 158.925 526.382 168.342C526.404 168.36 526.43 168.373 526.458 168.381C526.485 168.388 526.514 168.39 526.543 168.386C526.571 168.381 526.598 168.37 526.622 168.355C526.646 168.339 526.667 168.319 526.683 168.295C546.827 137.77 597.619 147.051 593.575 184.192C593.57 184.231 593.577 184.27 593.595 184.305C593.612 184.34 593.638 184.369 593.672 184.389C593.705 184.41 593.743 184.42 593.782 184.419C593.821 184.419 593.859 184.407 593.892 184.386C620.737 167.097 644.268 202.138 626.71 222.553C626.69 222.576 626.675 222.604 626.667 222.634C626.659 222.664 626.658 222.695 626.664 222.725C626.67 222.755 626.683 222.784 626.702 222.809C626.721 222.833 626.745 222.853 626.773 222.867C635.415 227.19 639.722 234.978 640.791 243.415C643.354 263.536 622.013 288.539 595.332 276.17C595.299 276.155 595.263 276.149 595.227 276.152C595.191 276.156 595.156 276.168 595.127 276.189C595.097 276.21 595.074 276.238 595.059 276.271C595.044 276.304 595.038 276.34 595.041 276.376C595.939 288.535 577.681 297.907 563.056 290.642C563.024 290.627 562.99 290.619 562.955 290.62C562.92 290.621 562.886 290.631 562.856 290.649C562.826 290.667 562.801 290.692 562.784 290.722C562.767 290.752 562.757 290.786 562.756 290.821C562.539 308.427 562.722 328.685 565.842 345.496C565.942 346.047 565.92 346.613 565.776 347.155C565.632 347.696 565.371 348.199 565.01 348.627C564.648 349.057 564.195 349.403 563.685 349.641C563.175 349.878 562.619 350 562.057 350H533.126C532.568 350 532.017 349.88 531.511 349.648C531.005 349.418 530.556 349.08 530.194 348.658C529.832 348.236 529.567 347.74 529.417 347.205C529.267 346.672 529.236 346.112 529.326 345.566Z" fill="#003C03"/>
</g>
<mask id="mask2_101_32" style="mask-type:luminance" maskUnits="userSpaceOnUse" x="917" y="100" width="155" height="250">
<path d="M917 100H1072V350H917V100Z" fill="white"/>
</mask>
<g mask="url(#mask2_101_32)">
<path d="M1070.66 146.305C1068.26 130.933 1036 151.143 1026.87 157.199C1026.82 157.229 1026.77 157.24 1026.71 157.231C1026.68 157.227 1026.66 157.218 1026.63 157.203C1026.61 157.188 1026.59 157.169 1026.57 157.146C1026.53 157.102 1026.52 157.045 1026.52 156.988C1026.52 156.931 1026.55 156.878 1026.59 156.838C1034.76 148.934 1062.8 119.577 1039.21 109.777C1017.77 100.878 1002.74 141.94 999.641 151.238C999.623 151.29 999.586 151.334 999.538 151.361C999.491 151.389 999.435 151.398 999.381 151.387C999.327 151.376 999.278 151.346 999.245 151.302C999.211 151.259 999.194 151.204 999.197 151.149C999.926 139.897 1001.88 83.822 966.469 104.56C941.856 118.973 965.859 148.919 971.891 155.813C971.936 155.854 971.964 155.911 971.968 155.973C971.971 156.034 971.95 156.094 971.91 156.14C971.869 156.185 971.813 156.213 971.752 156.217C971.691 156.22 971.631 156.199 971.586 156.158C962.193 149.862 914.57 119.773 917.408 158.933C919.238 184.056 944.067 176.727 952.59 173.445C952.643 173.423 952.703 173.421 952.757 173.441C952.798 173.456 952.833 173.483 952.86 173.517C952.886 173.552 952.902 173.593 952.906 173.637C952.91 173.68 952.901 173.724 952.881 173.762C952.861 173.801 952.83 173.833 952.793 173.855C946.541 177.846 931.412 188.752 931.636 200.642C931.709 204.495 934.009 210.677 938.704 212.957C946.591 216.788 953.014 204.08 962.726 198.994C970.832 194.749 979.053 194.678 979.053 194.678H979.191C979.251 194.678 979.308 194.7 979.352 194.741C979.396 194.782 979.422 194.837 979.426 194.897C980.355 211.793 982.967 280.66 968.447 344.721C967.789 347.626 969.666 350.003 972.607 350.003H1015.8C1018.76 350.003 1020.62 347.626 1019.96 344.717C1004.71 277.424 1008.37 204.835 1009.12 192.746C1009.12 192.704 1009.13 192.664 1009.16 192.63C1009.18 192.595 1009.21 192.567 1009.25 192.551C1009.29 192.534 1009.33 192.527 1009.37 192.531C1009.41 192.536 1009.45 192.551 1009.48 192.576C1013.18 195.336 1046.41 219.354 1058.07 201.221C1066.4 188.274 1038.73 177.305 1028.66 173.825C1028.6 173.807 1028.56 173.768 1028.53 173.716C1028.5 173.665 1028.5 173.605 1028.51 173.549C1028.52 173.521 1028.53 173.494 1028.55 173.47C1028.56 173.447 1028.58 173.427 1028.61 173.412C1028.66 173.38 1028.71 173.368 1028.77 173.378C1040.42 175.317 1075.7 178.657 1070.66 146.305Z" fill="#003C03"/>
</g>
<path d="M396.07 236.465C405.868 233.681 470.662 213.251 437.761 169.637C408.96 131.459 378.93 174.705 371.578 186.661C371.549 186.707 371.503 186.741 371.451 186.756C371.398 186.771 371.341 186.766 371.292 186.741C371.243 186.716 371.205 186.674 371.186 186.623C371.166 186.572 371.166 186.515 371.186 186.464C378.293 168.918 408.368 83.144 308.115 102.95C232.873 117.812 266.167 195.199 268.332 200.031C268.345 200.06 268.352 200.091 268.351 200.123C268.351 200.171 268.335 200.218 268.305 200.256C268.274 200.294 268.232 200.32 268.185 200.331C264.244 201.364 215.649 215.41 248.116 267.589C271.111 304.547 319.339 283.619 323.619 281.667C323.652 281.651 323.689 281.644 323.726 281.647C323.763 281.649 323.798 281.66 323.829 281.68C323.86 281.699 323.886 281.727 323.903 281.759C323.921 281.791 323.93 281.827 323.93 281.863C324.018 288.244 323.379 305.48 317.372 345.234C317.278 345.821 317.312 346.422 317.472 346.995C317.633 347.568 317.915 348.099 318.301 348.552C318.686 349.005 319.165 349.369 319.705 349.619C320.245 349.869 320.832 349.999 321.427 350H354.62C355.215 349.998 355.802 349.868 356.342 349.617C356.881 349.367 357.36 349.002 357.745 348.549C358.13 348.096 358.412 347.566 358.573 346.993C358.733 346.421 358.768 345.821 358.674 345.234C352.055 301.415 351.953 284.954 352.16 280.232C352.163 280.175 352.187 280.122 352.229 280.083C352.27 280.044 352.325 280.022 352.382 280.023C352.419 280.023 352.456 280.033 352.489 280.052C356.698 282.423 402.581 307.482 419.23 283.166C446.441 243.422 404.084 237.623 396.108 236.895C396.057 236.89 396.01 236.867 395.975 236.83C395.939 236.794 395.917 236.746 395.912 236.696C395.908 236.645 395.921 236.594 395.95 236.552C395.979 236.51 396.021 236.479 396.07 236.465Z" fill="#66DC6F"/>
<mask id="mask3_101_32" style="mask-type:luminance" maskUnits="userSpaceOnUse" x="22" y="50" width="280" height="300">
<path d="M22 50H302V350H22V50Z" fill="white"/>
</mask>
<g mask="url(#mask3_101_32)">
<path d="M134.787 343.349C139.001 318.047 140.343 288.484 140.765 263.422C140.766 263.377 140.756 263.332 140.737 263.291C140.719 263.249 140.691 263.212 140.656 263.183C140.621 263.154 140.58 263.133 140.536 263.122C140.492 263.11 140.446 263.109 140.401 263.117C122.072 266.558 95.1628 261.928 94.2598 234.082C94.2578 234.021 94.2373 233.961 94.2011 233.911C94.1649 233.862 94.1146 233.824 94.0568 233.803C93.9989 233.782 93.9362 233.78 93.8766 233.795C93.8171 233.81 93.7635 233.843 93.7228 233.889C80.9978 248.304 18.3828 236.233 22.1638 175.016C23.0178 161.216 36.7018 135.567 60.1768 136.994C60.2246 136.997 60.2725 136.99 60.3166 136.971C60.3607 136.952 60.3999 136.924 60.4308 136.887C60.4618 136.851 60.4839 136.808 60.4952 136.762C60.5065 136.716 60.5067 136.667 60.4958 136.621C44.1468 64.799 112.75 63.387 130.38 77.512C130.43 77.5528 130.492 77.5768 130.557 77.5806C130.622 77.5844 130.686 77.5677 130.741 77.533C130.777 77.5097 130.808 77.4791 130.831 77.443C160.994 31.655 237.046 45.576 230.99 101.289C230.983 101.347 230.994 101.405 231.019 101.458C231.045 101.51 231.085 101.554 231.135 101.584C231.185 101.614 231.242 101.63 231.301 101.629C231.359 101.628 231.416 101.611 231.465 101.579C271.661 75.646 306.894 128.207 280.604 158.829C280.574 158.864 280.551 158.905 280.539 158.95C280.522 159.018 280.529 159.089 280.558 159.153C280.587 159.216 280.637 159.268 280.699 159.3C293.638 165.785 300.087 177.467 301.688 190.122C305.526 220.304 273.571 257.809 233.622 239.255C233.573 239.232 233.518 239.223 233.464 239.228C233.41 239.233 233.359 239.252 233.314 239.283C233.27 239.315 233.235 239.357 233.212 239.406C233.19 239.456 233.181 239.51 233.186 239.564C234.529 257.803 207.192 271.861 185.293 260.963C185.222 260.928 185.141 260.92 185.065 260.943C184.99 260.965 184.925 261.016 184.886 261.084C184.86 261.129 184.846 261.18 184.845 261.232C184.52 287.64 184.793 318.027 189.465 343.244C189.692 344.491 189.498 345.778 188.914 346.903C188.33 348.028 187.389 348.927 186.238 349.459C185.473 349.815 184.64 350 183.797 350H140.478C139.643 350 138.818 349.82 138.06 349.472C137.303 349.125 136.63 348.618 136.089 347.985C135.547 347.353 135.15 346.61 134.925 345.808C134.701 345.008 134.653 344.169 134.787 343.349Z" fill="#003C03"/>
</g>
<path d="M1210.26 259.172C1218.09 256.945 1269.93 240.601 1243.61 205.71C1220.57 175.167 1196.54 209.764 1190.66 219.329C1190.64 219.366 1190.6 219.393 1190.56 219.405C1190.52 219.416 1190.47 219.412 1190.43 219.393C1190.41 219.384 1190.39 219.371 1190.38 219.355C1190.37 219.339 1190.36 219.32 1190.35 219.299C1190.34 219.279 1190.34 219.257 1190.34 219.235C1190.34 219.213 1190.34 219.191 1190.35 219.171C1196.03 205.134 1220.09 136.516 1139.89 152.36C1079.7 164.249 1106.33 226.159 1108.07 230.025C1108.08 230.048 1108.08 230.073 1108.08 230.099C1108.08 230.124 1108.07 230.149 1108.06 230.172C1108.05 230.195 1108.04 230.216 1108.02 230.232C1108 230.247 1107.98 230.258 1107.95 230.265C1104.79 231.091 1065.92 242.328 1091.89 284.071C1110.29 313.637 1148.87 296.895 1152.3 295.333C1152.32 295.32 1152.35 295.314 1152.38 295.317C1152.41 295.319 1152.44 295.328 1152.46 295.344C1152.49 295.36 1152.51 295.381 1152.52 295.407C1152.54 295.432 1152.54 295.461 1152.54 295.49C1152.61 300.595 1152.1 314.384 1147.3 346.187C1147.22 346.657 1147.25 347.137 1147.38 347.594C1147.57 348.285 1147.98 348.895 1148.56 349.329C1149.13 349.764 1149.82 349.999 1150.54 350H1177.1C1177.57 349.998 1178.04 349.893 1178.47 349.693C1178.9 349.493 1179.29 349.201 1179.6 348.839C1179.9 348.477 1180.13 348.052 1180.26 347.594C1180.39 347.137 1180.41 346.657 1180.34 346.187C1175.04 311.132 1174.96 297.963 1175.13 294.186C1175.13 294.156 1175.14 294.126 1175.15 294.101C1175.17 294.075 1175.19 294.054 1175.22 294.04C1175.25 294.026 1175.28 294.019 1175.31 294.018C1175.34 294.019 1175.37 294.026 1175.39 294.041C1178.76 295.938 1215.47 315.986 1228.78 296.533C1250.55 264.738 1216.67 260.098 1210.29 259.516C1210.25 259.511 1210.21 259.493 1210.18 259.464C1210.17 259.45 1210.15 259.434 1210.14 259.415C1210.14 259.397 1210.13 259.376 1210.13 259.356C1210.13 259.316 1210.14 259.276 1210.16 259.242C1210.18 259.207 1210.22 259.182 1210.26 259.172Z" fill="#003C03"/>
<path d="M301.018 243.345C301.018 215.014 275.182 204.697 269.418 192.158C267.647 188.305 272.837 183.235 272.902 175.484C273.003 163.333 264.973 151.226 246.144 151.226C231.335 151.226 224.867 159.301 222.992 169.184C220.903 180.196 225.931 188.185 226.674 190.748C229.003 198.786 196.615 213.777 195.989 244.185C195.437 271.048 229.741 290.151 237.639 294.188C237.669 294.203 237.693 294.225 237.711 294.253C237.729 294.281 237.738 294.313 237.739 294.346C238.012 306.353 237.647 325.704 233.871 344.699C233.774 345.195 233.789 345.707 233.916 346.197C234.043 346.687 234.277 347.142 234.603 347.529C234.929 347.919 235.338 348.232 235.801 348.448C236.265 348.663 236.771 348.775 237.283 348.775H259.716C260.227 348.776 260.732 348.666 261.195 348.45C261.658 348.235 262.069 347.92 262.397 347.529C262.723 347.14 262.957 346.684 263.084 346.195C263.21 345.706 263.226 345.195 263.128 344.699C259.359 325.735 258.989 306.428 259.258 294.413C259.259 294.38 259.269 294.347 259.287 294.32C259.306 294.292 259.331 294.269 259.361 294.255C266.764 290.64 301.018 272.364 301.018 243.345Z" fill="#1C991C"/>
<mask id="mask4_101_32" style="mask-type:luminance" maskUnits="userSpaceOnUse" x="334" y="0" width="217" height="350">
<path d="M334 0H551V350H334V0Z" fill="white"/>
</mask>
<g mask="url(#mask4_101_32)">
<path d="M549.124 64.826C545.77 43.306 500.595 71.6 487.819 80.078C487.752 80.1212 487.672 80.1377 487.594 80.1241C487.516 80.1106 487.446 80.068 487.398 80.005C487.348 79.9425 487.323 79.8636 487.328 79.7838C487.333 79.7039 487.367 79.6288 487.425 79.573C498.868 68.508 538.121 27.408 505.089 13.688C475.082 1.22899 454.032 58.716 449.698 71.734C449.672 71.8063 449.621 71.867 449.554 71.9051C449.487 71.9432 449.409 71.9563 449.334 71.942C449.258 71.9269 449.19 71.8849 449.143 71.8237C449.096 71.7624 449.072 71.6862 449.077 71.609C450.097 55.857 452.839 -22.649 403.257 6.38399C368.799 26.562 402.403 68.486 410.849 78.138C410.912 78.1958 410.95 78.2762 410.955 78.3619C410.96 78.4476 410.931 78.5316 410.874 78.596C410.846 78.6276 410.812 78.6533 410.774 78.6716C410.736 78.69 410.695 78.7007 410.653 78.703C410.611 78.7053 410.569 78.6993 410.529 78.6852C410.49 78.6711 410.453 78.6493 410.422 78.621C397.271 69.807 330.599 27.681 334.572 82.506C337.134 117.678 371.895 107.418 383.827 102.824C383.901 102.792 383.985 102.79 384.061 102.818C384.137 102.846 384.199 102.903 384.235 102.976C384.271 103.049 384.279 103.133 384.256 103.212C384.232 103.29 384.181 103.356 384.111 103.398C375.358 108.984 354.177 124.253 354.491 140.898C354.593 146.293 357.813 154.948 364.386 158.139C375.428 163.503 384.42 145.712 398.018 138.591C409.365 132.649 420.874 132.55 420.874 132.55H421.069C421.153 132.548 421.234 132.579 421.295 132.636C421.357 132.693 421.393 132.772 421.397 132.856C422.698 156.51 426.355 252.923 406.026 342.609C405.106 346.676 407.734 350.004 411.85 350.004H472.326C476.46 350.004 479.073 346.676 478.15 342.604C456.801 248.394 461.925 146.77 462.967 129.844C462.97 129.786 462.989 129.73 463.022 129.682C463.054 129.634 463.098 129.596 463.15 129.572C463.202 129.547 463.26 129.538 463.317 129.544C463.374 129.55 463.429 129.572 463.475 129.606C468.656 133.471 515.168 167.096 531.5 141.71C543.163 123.584 504.425 108.227 490.324 103.354C490.247 103.328 490.183 103.274 490.144 103.202C490.105 103.131 490.095 103.048 490.116 102.969C490.135 102.89 490.183 102.822 490.251 102.777C490.318 102.732 490.4 102.715 490.48 102.729C506.79 105.443 556.18 110.119 549.124 64.826Z" fill="#1C991C"/>
</g>
<path d="M127.256 259.172C135.095 256.945 186.93 240.601 160.609 205.71C137.568 175.167 113.544 209.764 107.662 219.329C107.639 219.366 107.603 219.394 107.561 219.405C107.518 219.417 107.473 219.413 107.434 219.393C107.395 219.373 107.364 219.34 107.348 219.299C107.333 219.258 107.333 219.212 107.349 219.171C113.034 205.134 137.094 136.516 56.8922 152.36C-3.30084 164.249 23.3342 226.159 25.0652 230.025C25.0758 230.048 25.0812 230.073 25.0809 230.099C25.0805 230.124 25.0745 230.149 25.0632 230.172C25.052 230.195 25.0359 230.215 25.016 230.231C24.9962 230.247 24.973 230.259 24.9482 230.265C21.7952 231.091 -17.0798 242.328 8.89316 284.071C27.2892 313.637 65.8712 296.895 69.2952 295.333C69.3353 295.314 69.3812 295.311 69.4235 295.325C69.4657 295.338 69.5011 295.368 69.5222 295.407C69.5364 295.432 69.544 295.461 69.5442 295.49C69.6142 300.595 69.1032 314.384 64.2982 346.187C64.1844 346.895 64.3051 347.621 64.642 348.254C64.9789 348.887 65.5134 349.392 66.1642 349.693C66.5952 349.893 67.0652 349.998 67.5412 350H94.0962C94.5718 349.997 95.0413 349.892 95.4728 349.692C95.9042 349.492 96.2873 349.201 96.5962 348.839C96.9043 348.477 97.1302 348.052 97.2585 347.594C97.3868 347.137 97.4143 346.656 97.3392 346.187C92.0442 311.132 91.9632 297.963 92.1292 294.186C92.131 294.141 92.1503 294.098 92.1832 294.066C92.216 294.035 92.2598 294.018 92.3052 294.018C92.3352 294.019 92.3652 294.026 92.3912 294.041C95.7582 295.938 132.465 315.986 145.784 296.533C167.553 264.738 133.667 260.098 127.287 259.516C127.247 259.511 127.209 259.493 127.18 259.464C127.152 259.435 127.134 259.397 127.13 259.356C127.127 259.316 127.138 259.275 127.161 259.242C127.184 259.208 127.217 259.184 127.256 259.172Z" fill="#3B893F"/>
</g>
<defs>
<clipPath id="clip0_101_32">
<rect width="1368" height="350" fill="white"/>
</clipPath>
</defs>
</svg>
