<?xml version="1.0" encoding="utf-8"?>
<!-- Generator: Adobe Illustrator 25.2.0, SVG Export Plug-In . SVG Version: 6.00 Build 0)  -->
<svg version="1.1" id="Layer_1" xmlns="http://www.w3.org/2000/svg" xmlns:xlink="http://www.w3.org/1999/xlink" x="0px" y="0px"
	 viewBox="0 0 688 316" style="enable-background:new 0 0 688 316;" xml:space="preserve">
<style type="text/css">
	.st0{fill:#2D7323;}
	.st1{fill:#91B820;}
	.st2{clip-path:url(#SVGID_2_);}
	.st3{fill:#FF0D90;}
	.st4{fill:#009F67;}
	.st5{fill-rule:evenodd;clip-rule:evenodd;fill:#FBFAF9;}
	.st6{fill:#325009;}
</style>
<g>
	<path class="st0" d="M118.4,324.1c-0.6-17-23.8-11.7-20.1-38c2.9-21.1-19.3-16.7-16-40.3c0.9-6.7-5.7-12.1-10.2-17.1
		c-4.6-5-9.2-10.8-8.8-17.6c0.4-7,6.2-13.1,5.5-20.1c-0.5-4.9-4.1-8.8-7-12.9c-6.3-8.9-9.4-20.1-8.3-31c1.1-10.9,9.4-23.8,17.6-31
		c11.4-10.1,26.7-12.2,41.9-13.6c14-1.3,29.1-1,40.7,6.9c13.6,9.3,20.9,29.5,16,45.2c-1.5,4.8-3.7,9.4-5.3,14.2
		c-4.4,13.8,6.2,20,9,31.1c1.6,6.5-1.4,13.2-4.7,19.1c-3.4,5.8-8.6,12.6-6.2,18.9c8.4,22.3-18.6,26.9-16.3,48.1
		c2.5,22.1-18.6,18.2-17.9,37.7L118.4,324.1L118.4,324.1z"/>
	<path class="st1" d="M135.4,360.8c-3.9-3.2-8-6-12.1-8.5c3.5-7.7,5.7-17,5.2-28.5l-0.5-14.7c-0.6-19,4.9-37.7,15.9-53.2l5.3-7.5
		l-4.1-2.9l-18.4,26l-0.2-4.8c-0.7-21,5.5-41.7,17.6-58.9l1.4-1.9l-4.1-2.9l-16.3,23l-0.2-6c-0.7-21.5,5.6-42.6,18-60.2l0.3-0.4
		l-4.1-2.9l-15.6,22l-1.3-39.6l-10,0.3l1.4,40l-21.6-22.9l-3.7,3.4c16.4,17.4,25.9,40.3,26.7,64.2l0.1,3.2l-21-22.3l-3.7,3.4
		c16.1,17.1,25.4,39.4,26.2,62.8l0,0.4L98,251.8l-3.7,3.4c14.5,15.4,22.9,35.6,23.6,56.7l0.4,12.1l0,0.1c0.3,6.7-0.1,14.4-4,23.2
		c-6.9-3.4-14-5.9-21.3-7.6c-9.3-2.2-16.7-2.3-23.3-0.5c-9.1,2.5-16.2,9.3-18.2,17.4c-2.4,9.9,3.2,21.2,13.1,26.2
		c8.1,4.1,18.4,4.2,28.3,0.3c6.9-2.7,13.1-7.1,18-12.7c2.4-2.8,5-5.9,7.3-9.4c3.7,2.3,7.2,4.8,10.7,7.6c4.7,3.8,9.1,8,13.2,12.5
		l7.2-7C145.1,369.2,140.4,364.8,135.4,360.8L135.4,360.8z M103.5,363.8c-3.9,4.4-8.8,7.9-14.2,10c-7.2,2.8-14.5,2.9-20,0.1
		c-5.7-2.9-9.2-9.5-7.9-14.9c1.1-4.6,5.5-8.5,11.1-10.1c3.6-1,7.7-1.2,12.6-0.5c1.8,0.2,3.7,0.6,5.7,1.1c6.4,1.5,12.6,3.7,18.7,6.6
		C107.8,358.6,105.8,361.2,103.5,363.8L103.5,363.8z"/>
	<g>
		<defs>
			
				<rect id="SVGID_1_" x="58.5" y="162.5" transform="matrix(0.6241 -0.7814 0.7814 0.6241 -178.4599 316.5361)" width="362.5" height="362.5"/>
		</defs>
		<clipPath id="SVGID_2_">
			<use xlink:href="#SVGID_1_"  style="overflow:visible;"/>
		</clipPath>
		<g class="st2">
			<path class="st3" d="M291.9,253.9c-18.6-12.7-44.8-45.7-77.3-38.4c-32.5,7.3-71.1,49.8-70.8,95.1c0.3,45.3,27.5,131,51.9,174.8
				c4.5,9.8,15.6,16.7,24.7,22.7c10.5,7,26.5,10.7,40.3-6.7L354,384.8c6.8-8.6,29.9-46,6.5-85C336,258.8,306.6,266.6,291.9,253.9
				L291.9,253.9z"/>
			<path class="st4" d="M285.5,199.4l-10.2,12.8c7.4,5.9,15.8,15.3,14.4,23.6c-0.8,4.8-6.5,11.3-11.2,7.5
				c-17.1-14.6-38.6-33.4-63.9-27.7c0.6,12,5.5,25.5,5.5,25.5s16,13,42.2,15c-1.4,22,0.4,26.4,0.4,26.4l7.9,6.3
				c0,0,11.5-3.4,22.7-14.3c5.7,10.1,12.7,19.5,12.7,19.5s27.9,2.9,42.2-10.7c-17.5-18.3-35.8-19.1-48.6-24.7
				C324,237.3,300.2,208.9,285.5,199.4L285.5,199.4z"/>
			<path class="st5" d="M186.8,264.8c0.9,1.2,2.1,2.1,3.6,2.4c0.8,0.2,1.7,0.1,2.5,0c1-0.2,2-0.4,2.8-0.9c2.1-1.4,2.5-4.3,2.7-6.9
				c0.3-5.3,0.4-10.9-2.4-15.4c-0.4-0.7-0.9-1.4-1.6-1.9c-2.4-2.1-6.5-1.6-8.8,0.6c-2.4,2.2-3.3,5.6-3.1,8.9
				c0.1,2.4,0.8,4.8,1.6,7.1c0.1,0.3,0.2,0.7,0.3,1l0,0l0,0C185,261.5,185.6,263.2,186.8,264.8z M166.6,293.3
				c1.1-1.5,2.9-2.8,4.7-2.5h0c2.1,0.3,4.8,1.5,5.9,3.4c1.1,1.9,1.5,4,1.7,6.2c0.6,5.3-0.1,10.7-2.4,15.5c-0.8,0.2-1.6,0.3-2.5,0.5
				h0c-0.8,0.1-1.7,0.3-2.5,0.5c-1.3-0.5-2.8-1.1-3.4-2.3c-1.6-3.4-3.2-6.8-3.8-10.5C164,300.3,164.4,296.3,166.6,293.3z
				 M220.2,309.5c-1.9-3.6-3.5-7.6-3.3-11.8l0,0c0.2-5.9,6.1-13.8,12.3-8.5c1.6,1.4,2.6,3.5,3,5.7c0.4,2.1,0.3,4.4,0.1,6.5
				c-0.2,1.9-0.5,3.8-0.8,5.6c-0.3,1.6-0.7,3.3-1.6,4.7c-0.9,1.4-2.4,2.5-4.1,2.5c-1.3,0-2.5-0.7-3.4-1.6
				C221.4,311.8,220.8,310.7,220.2,309.5z M215.1,346.2c1.2-1.8,3.2-3.4,5.4-3.1l0,0c2.8,0.4,5.2,3.2,6.2,5.9c0.5,1.3,0.8,2.6,0.9,4
				c0.5,5.3-0.7,10.8-3.1,15.5c-0.9,0.2-1.8,0.3-2.7,0.4h0l0,0h0c-1.2,0.2-2.3,0.3-3.5,0.6c-1.9-3.6-3.8-7.3-4.7-11.3
				C212.6,354.1,212.8,349.6,215.1,346.2z M280.9,323c-3.5-0.8-7.1,1.3-9.1,4.2s-2.7,6.6-3.1,10.1c-0.3,2.4-0.4,4.9,0.5,7.1
				c0.9,2.2,3.1,4.1,5.5,3.8c1.9-0.2,3.4-1.7,4.7-3.2c2.1-2.5,3.9-5.2,5.4-8.1c0.1,0,0.1-0.2,0.1-0.3c0-0.1,0-0.1,0-0.2
				c0.4-2.8,0.6-5.7,0.8-8.5C284.6,326,283.2,323.5,280.9,323z M254.7,389.4c1.5-0.9,3.4-1.3,5.1-0.8l0,0c1.5,0.4,2.8,2.1,3.4,3.5
				c0.7,1.4,0.8,3,0.8,4.6c0,6.3-2.9,12.3-7.4,16.7c-1.4-0.3-2.7-0.6-4-1c-0.8-0.2-1.6-0.5-2.5-0.7c-0.7-3.1-1.2-6.2-1.2-9.3
				c0-3.1,0.7-6.3,2.2-9.1C252,391.7,253.2,390.3,254.7,389.4z M333.7,339.6c0.5,0.5,1.1,1,1.8,1.2c0.5,0.1,1,0,1.5-0.1
				c3.3-0.8,5.6-3.7,7.6-6.5c1.7-2.5,3.5-5.1,4.1-8c0.6-3-0.2-6.4-2.7-8.1c-2.1-1.4-5-1.3-7.3-0.2c-2.3,1.2-4,3.2-5.2,5.4
				C331,328.1,329.4,335.3,333.7,339.6L333.7,339.6z M312.9,398.3c-1.1,0.7-2.3,1.4-3.6,1.6l0,0c-4.6,0.7-5.9-4.4-5.2-8
				c0.8-3.7,2.4-7.9,4.6-11c1-1.5,2.3-2.8,3.8-3.7c1.6-0.9,3.5-1.2,5.2-0.7c2.1,0.7,3.6,2.8,4.1,5c0.5,2.2,0,4.5-0.8,6.6
				C319.4,392.2,316.6,395.8,312.9,398.3z M286.6,434.4c-2.2-1.1-4.4-2-6.8-2.8c-6.6,4-10.9,11.3-10.4,19c0.1,2.2,0.8,4.7,2.7,5.8
				c1.3,0.8,3,0.6,4.5,0c1.4-0.6,2.6-1.7,3.6-2.8c2.9-3.2,5.1-7,6.4-11.1C287.4,440,287.5,436.8,286.6,434.4L286.6,434.4z
				 M228.2,479c-0.2-5.2,1.3-10.8,5.1-14.4l0,0c1.6-1.5,4.3-3.3,6.5-2.4c2.2,0.9,4.5,2.9,5.2,5.2c0.7,2.3,0,4.7-0.8,7
				c-0.9,2.4-1.9,4.6-3.2,6.8c-1.4,2.5-3.3,5.1-6,6.1c-0.5,0.2-1.1,0.3-1.7,0.3c-0.6-0.1-1.3-0.3-1.8-0.7
				C229.1,485.2,228.3,482,228.2,479z M211.9,414.3c-1.6-0.4-3.2,0.5-4.3,1.6c-2.9,2.9-3.9,7.2-3.5,11.3c0.4,4,2.2,7.8,4.1,11.4
				c2.6,0.3,5.6,0.5,8.1-0.1c1.5-4,2.7-8.6,3.4-12.8c0.5-2.9-0.6-5.7-2.4-8.1C216.1,415.9,213.9,414.8,211.9,414.3L211.9,414.3z
				 M172.9,369.8c-0.4-2.5-0.4-5.2,0.5-7.5l0,0c0.9-2.3,3-4.7,5.6-4.8c2.7-0.1,5.4,0.6,7.1,2.9c1.5,1.9,1.9,4.4,2.1,6.8
				c0.2,2.8,0.2,5.7,0,8.5c-0.2,2.5-0.9,5.3-3,6.6c-1.5,0.9-3.5,0.8-5.1,0c-1.6-0.8-2.8-2.1-3.8-3.6
				C174.6,376,173.5,372.9,172.9,369.8z"/>
		</g>
	</g>
	<path class="st0" d="M428.4,315.1c-6.3-25.4-10.4-40.2-30.6-50.4c-36.5-18.4-21.4-35.8-33.4-45.9c-8.2-6.9-33.6-12.3-42.8-29
		c-16.7-30.4,25.9-58.9,51.7-33.2c11.8,11.8,11.9,27.3,19,35.1c7,7.8,12.9,9.4,16.4,16.5c4,8,4.2,28.5,7.3,35.6
		c3.7,8.7,12.4,12.8,16.5,26.3c-0.3-21.5,0.3-83.8,33.9-101c14.3-7.3,27.4-8.2,34.3-5.8c7.9,2.7,10.4,10.4,18.1,10.3
		c9.6-0.1,25.8-3.7,26.4,16.5c0.6,20.1-20.3,20.3-20.3,20.3c-8.5,0-11.5-0.7-15.8,0.4c-4.4,1.1-7.3,6.9-15.8,8
		c-8.5,1.1-17.4-9.2-32,5.5c-14.7,14.6-16.4,41.3-7.1,87l-6.2,29.8L428.4,315.1L428.4,315.1z"/>
	<path class="st6" d="M572.2,321.2c-20.4-8.2-36,9.7-51.5,11.7c-12.9,1.7-48.9,1.6-58.1,30.7c0,0-16.8-70.8,21.5-78.6
		c16.6-3.4,26.3,5.3,28.5,16.2c2.2,10.9,8.4,16.2,27.5,12.2c28.9-5.9,23.3-26.5,19.4-35.5c-1.3-3-1.9-6.2-2.1-9.5
		c-0.9-18.2-8.1-26.3-21.4-23.6c-31.7,6.5-24.6-3.4-47,1.2c-20.9,4.3-47.6,28.5-44.8,79.1c0,0-21.1-64.4-93.8-54.4
		c-35.1,4.9-58.4,36.2-52.2,66.1c3.8,18.5,12.8,22.2,20,20.1c15.8-4.4,7.8-18.2,15.6-21.8c4.6-2.1,10,3.3,18.1-0.9
		c11-5.6,7.9-19.2,20.6-21.2c14.6-2.4,8.5,13,23.2,16.3c11.9,2.6,18.8-6.3,27.6-4.5c8.3,1.7,15.2,12.4,17.8,30.9
		c-18.8-11.4-52-12.8-88.2-1s-27.6,40.2-14.5,77.9l29.4-6c-9.4-45.8,3.4-59.3,18.7-63.4c17-4.6,18.5,9.4,30.8,10.3
		c12.3,0.9,11.8-6.5,19.5-6.1c5.5,0.3,7.4,4.2,8.5,8.7l6.9,33.3l17.1-3.5c0,0-13.9-38.4,22.4-48.6c49.6-14,54.6,32.9,54.6,32.9
		l24.2-5c0,0,13.3-2.4,13.3-14.1C584,353.5,595.2,330.5,572.2,321.2L572.2,321.2z"/>
</g>
</svg>
