<?xml version="1.0" encoding="utf-8"?>
<!-- Generator: Adobe Illustrator 25.2.0, SVG Export Plug-In . SVG Version: 6.00 Build 0)  -->
<svg version="1.1" id="Layer_1" xmlns="http://www.w3.org/2000/svg" xmlns:xlink="http://www.w3.org/1999/xlink" x="0px" y="0px"
	 viewBox="0 0 122.9 157.3" style="enable-background:new 0 0 122.9 157.3;" xml:space="preserve">
<style type="text/css">
	.st0{fill:#E5EEFD;}
	.st1{fill:#325009;}
	.st2{fill:#2D7323;}
	.st3{fill:#FC90B9;}
</style>
<g>
	<path class="st0" d="M63.6,129.2c-4.5-16.6-38-13.9-56-48.7C-7.6,51-2.7,12.3,47,1.6c36.7-7.8,69.2,13.1,75,45.4
		c5.8,32.3-20.5,54.1-16,70.9L63.6,129.2L63.6,129.2z"/>
	<path class="st1" d="M78.7,147.4c0.6,2.3,1.8,5.4,5,8.3c1.7,1.5,4.1,2.1,6.3,1.5l6.7-1.8c1.8-0.5,3.3-1.7,4.2-3.3
		c2.5-4.5,1.7-8.2,1-10.9L78.7,147.4L78.7,147.4z"/>
	<path class="st2" d="M70.8,79.9c-1.2-2.3-5-3-7.7-3.1c-2.7-0.1-5.4,0.5-8,0.9c-0.9,0.1-1.9,0.2-2.7-0.1c-0.8-0.3-1.4-1.1-2-1.8
		c-2-2.7-3.7-5.6-5.1-8.7c-0.3-0.6-0.5-1.2-0.4-1.8c0.1-0.3,0.2-0.6,0.5-0.8c0.5-0.4,1.1-0.2,1.6-0.1c1.2,0.3,2.4,0.5,3.7,0.5
		c0.8,0,1.8-0.1,2.1-1.1c0.2-0.5,0-1.1-0.3-1.6c-1.5-2.1-3.9-3.1-6.1-4.5c-3-1.8-5.5-4.3-7.3-7.2c-0.8-1.3-1.6-2.7-1.6-4.3
		c0-0.3,0-0.6,0.1-0.8c0.5-1.6,2.5-1.6,4-1.4c1.5,0.2,3.5,0.2,4.1-1.5c0.1-0.3,0.1-0.6,0.1-0.9c-0.1-1.1-0.2-2.3-0.6-3.4
		c-0.5-2,0.8-4.1,2.9-4.6l7.5-2c1.5-0.4,3.1,0.1,4.1,1.2c0.3,0.4,0.6,0.8,0.9,1.2c0.5,0.8,0.9,1.7,1.5,2.4c0.6,0.7,1.6,1.2,2.6,0.9
		c0.5-0.1,1-0.5,1.4-0.7c1.3-0.8,3-1.4,4.4-0.8c1.3,0.6,1.8,2,2.3,3.3c1.1,2.9,2.5,5.7,4.1,8.4c0.7,1.2,1.9,2.5,1.2,3.8
		c-0.4,0.8-1.2,1.3-2,1.7c-1.7,1.1-3.5,2.5-3.5,4.6c0,1.3,0.8,2.4,2.1,2.5c1.4,0.2,2.5-1,3.5-1.9c1.2-1.1,2.9-2.1,4.2-0.7
		c0.2,0.3,0.4,0.5,0.5,0.9c1.5,3.6,2.7,7.3,3.7,11c0.1,0.3,0.1,0.6,0.1,0.8c-0.1,0.5-0.6,0.8-1.1,0.9c-0.5,0.1-1,0.1-1.5,0.1
		c-1.9,0-3.8,0.7-5.2,2c-1.3,1.3-1.7,3.1-1.1,4.8L70.8,79.9L70.8,79.9z"/>
	<path class="st3" d="M106,117.7c0,0,1.1,4.1,0.4,5.9c-0.3,1-1,1.8-1.2,2.8c-0.2,1.1,0.3,2.1,0.8,3.1c1.2,2.6,2.2,5.3,1.9,8.1
		c-0.3,2.8-2,5.1-5.9,6.2L80,149.7c-3.9,1-6.5-0.1-8.2-2.4c-1.7-2.3-2.2-5.2-2.4-8c-0.1-1.1-0.2-2.2-0.9-3.1
		c-0.6-0.8-1.6-1.2-2.4-1.8c-1.5-1.3-2.5-5.4-2.5-5.4"/>
	<path class="st1" d="M52.9,44.9c1.7,6.9,2.9,10.3,7,16.2c4.1,6,8.5,11.9,10.8,18.8c1.8,5.5,2.2,11,4.2,16.4l7.2-1.9
		c-2-5.4-2.3-10.9-4.2-16.4c-2.3-6.9-7-11.5-11.1-17.4c-4.1-6-6.9-9.6-8.9-16.6C57.3,41.1,52.3,42.3,52.9,44.9L52.9,44.9z"/>
	<path class="st2" d="M61,87.5c1.6-1.5,3.4-2.6,4.8-2.9c12.5-3.4,15.9,8.3,16.4,9.7c3,9.1,5.5,18.5,7.6,27.8l-8.9,2.4l-5.2-19.3
		C73.6,98,70.2,83.2,61,87.5L61,87.5z"/>
	<path class="st1" d="M61,87.5c9.2-4.4,12.7,10.4,14.6,17.7c-3.7,1.8-14.9,4.4-17.7-6.3C56.5,94,58.4,90,61,87.5z M69.9,99.3
		c2.7-0.7,3.1-3.2,2.3-5.1s-2.7-2.4-4.4-1.9c-1.7,0.5-2.9,2-2.3,4C65.9,98.3,67.1,100.1,69.9,99.3L69.9,99.3z"/>
</g>
</svg>
