<svg width="157" height="124" viewBox="0 0 157 124" fill="none" xmlns="http://www.w3.org/2000/svg">
<mask id="mask0_24_184" style="mask-type:alpha" maskUnits="userSpaceOnUse" x="0" y="0" width="157" height="124">
<rect x="0.0119629" width="156.988" height="123.797" fill="#D9D9D9"/>
</mask>
<g mask="url(#mask0_24_184)">
<path d="M61.6872 -19.7299C60.3007 -19.1245 59.1528 -18.1689 58.0845 -17.0994C56.7477 -15.7594 54.7091 -15.2468 52.8411 -15.5509C51.6748 -15.7396 50.5511 -16.2189 49.37 -16.2256C47.2064 -16.2402 45.3734 -14.7036 43.8379 -13.178C42.3024 -11.6523 40.7016 -9.96868 38.5805 -9.54675C36.6043 -9.15409 34.4808 -9.93853 32.5745 -9.28533C31.2788 -8.84096 30.2786 -7.78314 29.5463 -6.62436C28.8139 -5.46559 28.3006 -4.18453 27.6341 -2.98917C27.3145 -2.41588 26.9508 -1.85414 26.4432 -1.43756C25.9356 -1.02098 25.2657 -0.899956 24.6111 -0.893464C22.3225 -0.871526 19.9052 -0.812493 17.9568 0.389457C16.0559 1.5624 14.8941 3.68284 14.4233 5.86681C14.2526 6.65597 14.1608 7.46408 13.9116 8.23188C13.6624 8.99968 13.2277 9.74466 12.5385 10.1653C12.0632 10.4554 11.505 10.5725 11.0097 10.8279C9.867 11.4153 9.2009 12.6718 8.94442 13.9322C8.68795 15.1925 8.55495 16.5022 8.7199 17.7772C9.19288 21.4225 5.90701 22.7122 5.90701 22.7122C5.97369 19.5415 3.85675 19.5239 3.1719 19.7296C2.48706 19.9352 1.94282 20.4813 1.58481 21.1026C1.03206 22.0637 0.871508 23.2188 0.995956 24.3208C1.1204 25.4228 1.51605 26.4792 2.01429 27.4701C3.41063 30.2448 5.64226 32.6259 6.46202 35.6217C6.7727 36.7566 6.86568 37.9378 7.06467 39.0979C7.26365 40.2579 7.57703 41.427 8.26907 42.3799C8.9611 43.3328 10.2262 43.7809 11.3598 44.0985C12.429 44.3997 13.3957 45.0545 14.0688 45.938C14.8382 46.947 15.2078 48.1933 15.6565 49.38C16.1051 50.5667 16.6911 51.774 17.7326 52.4994C18.9763 53.3652 20.6088 53.372 22.121 53.2764C23.2333 53.2061 24.3757 53.1001 25.4457 53.4177C26.7232 53.7956 27.7482 54.7276 28.8112 55.5291C29.8742 56.3305 31.1378 57.0553 32.4612 56.8989C33.07 56.8269 33.6439 56.5717 34.1878 56.2887C35.5722 55.5682 36.8714 54.5259 38.0837 53.5442C39.5782 52.3356 43.3809 53.9631 47.5979 50.9686C50.0436 49.2322 51.8213 46.8166 53.3051 44.0385C54.6908 41.4413 56.4825 42.3604 59.2592 39.8732C61.8178 37.5832 62.3102 33.6122 63.4111 31.4199C64.547 29.1565 66.3156 29.8183 69.4937 27.0504C73.0606 23.9447 72.7923 20.7221 73.0931 17.574C73.3398 14.9938 75.4419 14.0933 77.5288 12.4046C85.4475 5.9939 83.2012 -1.57396 83.2012 -1.57396L89.5582 -7.10838L78.3666 -23.1066L71.6269 -18.3918C71.6269 -18.3918 65.7079 -21.4871 61.6872 -19.7299V-19.7299Z" fill="#2D7323"/>
<path d="M54.6435 29.8303L52.4743 29.7623L53.0156 12.415C49.2795 15.4758 45.7208 18.3934 42.6732 20.8963C41.455 21.8969 40.7386 23.3815 40.7132 24.9571L40.4204 43.1564L38.2491 43.1218L38.5512 24.2843C36.5355 25.9445 34.974 27.2361 34.0519 28.0084L33.7341 28.2752C26.4455 34.3807 18.186 41.301 8.26681 39.0711L9.21878 34.836C17.0427 36.5944 24.1104 30.6731 30.9454 24.9463L31.2632 24.6795C32.1779 23.9146 33.719 22.6394 35.7072 21.0005L18.2836 18.2596L18.6204 16.1143L35.5712 18.7791C37.0855 19.0169 38.6275 18.5973 39.8107 17.6255C42.8526 15.1266 46.4099 12.21 50.1488 9.14712L32.9714 6.08558L33.3518 3.94796L50.3202 6.97132C51.6137 7.20248 52.9444 6.85657 53.9611 6.02242C56.8206 3.68081 59.7204 1.30891 62.5194 -0.979791L48.3742 -3.72728L48.7884 -5.8589L62.6553 -3.16684C63.9527 -2.91505 65.297 -3.25355 66.3218 -4.09126C75.3136 -11.4433 82.4508 -17.2713 82.4508 -17.2713L84.9466 -13.7037C84.9466 -13.7037 77.815 -7.87968 68.8422 -0.542955C67.8595 0.261048 67.2656 1.44803 67.2121 2.71685L66.5971 17.3562L64.4284 17.2646L65.0459 2.56212C62.3822 4.7413 59.6282 6.9943 56.9073 9.22199C55.8489 10.0874 55.2185 11.3677 55.1764 12.7346L54.6429 29.8264L54.6435 29.8303Z" fill="#0D3A25"/>
<path d="M21.6186 46.5683C22.9026 48.7158 21.5739 51.5126 25.4484 53.4184C24.3794 53.1022 23.237 53.2083 22.1237 53.2771C20.6115 53.3727 18.979 53.366 17.7354 52.5001C16.6938 51.7748 16.1078 50.5675 15.6592 49.3808C15.2105 48.194 14.841 46.9477 14.0715 45.9387C13.397 45.0563 12.4307 44.3991 11.3625 44.0993C10.228 43.7802 8.96183 43.3307 8.26936 42.3802C7.57832 41.4287 7.26054 40.2564 7.06397 39.0968C6.86741 37.9372 6.77201 36.7555 6.46133 35.6206C5.64156 32.6248 3.40994 30.2437 2.0136 27.469C1.51535 26.4781 1.11971 25.4217 0.99526 24.3197C0.870812 23.2177 1.03136 22.0626 1.58411 21.1015C1.94213 20.4802 2.48394 19.9337 3.17121 19.7285C3.85847 19.5232 5.97442 19.5394 5.90632 22.7111C6.18612 25.7561 8.29237 25.3827 9.52404 27.8826C10.8188 30.5121 9.76964 32.0664 11.0706 34.1532C11.9646 35.5858 14.1312 35.3228 15.4522 37.4444C16.7732 39.5661 15.9152 41.527 17.221 43.5511C18.5282 45.5743 20.3322 44.4204 21.6172 46.5693L21.6186 46.5683Z" fill="#91B820"/>
<path d="M97.7951 -26.9328C98.8636 -21.2508 90.7554 -21.2776 93.9335 -12.7859C96.4829 -5.9738 88.7653 -5.78703 91.6111 1.81683C92.4159 3.96702 90.6205 6.27919 89.472 8.26588C88.3234 10.2526 87.223 12.5516 87.8467 14.7597C88.4975 17.0624 90.8919 18.6667 91.1727 21.0424C91.3702 22.715 90.4585 24.286 89.8124 25.841C88.38 29.2847 88.1876 33.2406 89.346 36.7858C90.5044 40.3311 94.2476 43.9882 97.5105 45.7941C102.059 48.3126 107.31 47.8831 112.464 47.2196C117.217 46.6086 122.231 45.3992 125.501 41.8959C129.329 37.7961 130.255 30.5483 127.475 25.677C126.62 24.1785 125.544 22.8165 124.67 21.3285C122.171 17.073 125.26 14.2015 125.366 10.3026C125.428 8.0079 123.929 6.00461 122.38 4.31139C120.829 2.61872 118.578 0.747942 118.9 -1.52467C120.04 -9.56188 110.697 -9.09402 109.92 -16.3273C109.107 -23.8728 102.394 -20.9988 101.166 -27.5255L97.7951 -26.9328V-26.9328Z" fill="#2D7323"/>
<path d="M100.725 -40.3808C99.6505 -39.0385 98.5167 -37.79 97.3243 -36.6372C99.0557 -34.34 100.497 -31.4026 101.166 -27.5255L102.093 -22.5969C103.29 -16.2305 106.537 -10.4301 111.34 -6.08206L113.665 -3.97748L112.516 -2.70854L104.461 -10.0012L104.762 -8.40165C106.087 -1.35073 109.683 5.07285 115.001 9.88726L115.6 10.4287L114.451 11.6976L107.327 5.24823L107.704 7.25456C109.058 14.46 112.734 21.0237 118.168 25.9434L118.279 26.0426L117.13 27.3115L110.315 21.1407L112.807 34.4027L109.443 35.0354L106.922 21.6209L101.447 30.8424L99.9754 29.9688C104.144 22.9467 105.612 14.6474 104.103 6.62319L103.901 5.5493L98.5649 14.5374L97.0932 13.6638C101.173 6.79283 102.609 -1.32934 101.132 -9.18219L101.108 -9.31073L96.3858 -1.35688L94.9141 -2.23047C98.5971 -8.43472 99.8947 -15.7691 98.5608 -22.8595L97.7999 -26.9068L97.7951 -26.9328C97.4053 -29.2023 96.6933 -31.7338 94.7415 -34.3623C92.7037 -32.7329 90.5244 -31.3548 88.2164 -30.2376C85.2907 -28.8221 82.839 -28.2201 80.503 -28.3401C77.2977 -28.506 74.4211 -30.2455 73.1722 -32.774C71.6335 -35.8891 72.6704 -40.0531 75.5827 -42.4612C77.9658 -44.4308 81.3843 -45.2375 84.9598 -44.6721C87.4419 -44.2797 89.8433 -43.2815 91.9056 -41.7867C92.9246 -41.0479 93.9988 -40.2006 95.0459 -39.1942C96.0981 -40.2193 97.1013 -41.3273 98.0525 -42.5173C99.3306 -44.1142 100.492 -45.844 101.522 -47.667L104.428 -45.8569C103.326 -43.9204 102.087 -42.0811 100.725 -40.3794L100.725 -40.3808ZM89.8952 -39.018C88.2679 -40.198 86.3773 -40.9851 84.4255 -41.2931C81.8201 -41.7048 79.3906 -41.17 77.7631 -39.825C76.0684 -38.4238 75.3998 -35.9937 76.241 -34.2921C76.95 -32.8567 78.6921 -31.8635 80.68 -31.7604C81.9541 -31.6944 83.3277 -31.9435 84.9099 -32.5357C85.4865 -32.7515 86.0901 -33.0133 86.7274 -33.3205C88.7463 -34.2969 90.6582 -35.4981 92.4526 -36.917C91.7104 -37.6155 90.8638 -38.3175 89.8966 -39.0185L89.8952 -39.018Z" fill="#0D3A25"/>
<g clip-path="url(#clip0_24_184)">
<path d="M145.209 58.937C137.929 64.5217 133.568 67.6731 125.819 66.0472C111.815 63.1076 112.144 71.1621 106.635 71.3276C102.879 71.4402 94.7451 67.3386 88.5976 69.9015C77.3852 74.5761 82.8088 91.7034 95.4863 90.276C101.294 89.6216 104.711 85.4083 108.351 84.8079C111.991 84.2076 113.918 85.0608 116.451 83.8995C119.306 82.5902 123.851 77.0181 126.216 75.7541C129.145 74.1875 132.404 74.978 136.495 72.1504C131.728 77.978 118.241 95.1492 123.671 107.214C125.983 112.351 129.365 115.454 131.797 116.322C134.539 117.301 136.912 115.737 139.003 117.452C141.592 119.576 145.262 124.096 149.832 118.725C154.402 113.354 148.72 108.736 148.72 108.736C146.396 106.874 145.431 106.41 144.482 105.155C143.533 103.9 143.983 101.673 141.895 99.5154C139.806 97.3578 135.141 98.2286 134.324 91.0163C133.506 83.804 138.85 76.13 151.398 65.6637L156.211 56.1412L145.207 58.9347L145.209 58.937Z" fill="#2D7323"/>
<path d="M185.908 88.6919C178.514 86.4782 178.154 78.1666 174.371 74.2517C171.198 70.9685 161.336 63.1383 165.165 53.1467C165.165 53.1467 145.101 68.8478 153.864 79.3529C157.66 83.9043 162.231 83.6552 165.219 81.1623C168.208 78.6695 171.043 78.5697 175.431 83.8301C182.053 91.7687 176.019 96.1919 172.985 97.7759C171.97 98.3047 171.096 99.0509 170.337 99.907C166.105 104.675 162.361 105.339 159.326 101.7C152.069 92.9997 151.841 97.2408 146.718 91.0987C141.928 85.3555 139.931 72.8936 151.752 59.6355C151.752 59.6355 131.905 72.6458 114.189 54.0109C105.658 44.999 106.116 31.3109 114.348 24.5154C119.429 20.2771 122.701 21.2464 124.221 23.3677C127.561 28.0308 122.373 30.0667 123.739 32.7368C124.543 34.3091 127.192 34.0246 128.495 36.9276C130.266 40.8749 126.471 43.9111 129.496 47.2477C132.965 51.075 134.683 45.5436 139.407 47.8729C143.221 49.7537 143.181 53.7133 145.967 55.1288C148.608 56.4706 152.841 55.0363 157.594 50.579C149.957 49.6109 140.575 42.7029 133.223 31.5746C125.872 20.4462 134.458 14.5371 146.29 7.0794L153.027 15.1554C140.445 25.6504 140.987 32.1421 144.286 36.6202C147.939 41.5788 151.413 38.1028 154.98 40.528C158.546 42.9531 156.792 44.8991 158.964 46.4611C160.516 47.5781 161.915 46.9148 163.189 45.9422L172.362 38.3357L176.269 43.0189C176.269 43.0189 164.077 50.4873 171.77 61.2366C182.272 75.9095 193.914 64.1733 193.914 64.1733L199.463 70.8259C199.463 70.8259 202.565 74.3886 200.032 77.5833C196.199 82.4205 194.244 91.1869 185.91 88.692L185.908 88.6919Z" fill="#325009"/>
</g>
</g>
<defs>
<clipPath id="clip0_24_184">
<rect width="152.374" height="152.374" fill="white" transform="matrix(0.640547 0.767919 0.767919 -0.640547 29 61.603)"/>
</clipPath>
</defs>
</svg>
