<?xml version="1.0" encoding="utf-8"?>
<!-- Generator: Adobe Illustrator 25.2.0, SVG Export Plug-In . SVG Version: 6.00 Build 0)  -->
<svg version="1.1" id="Layer_1" xmlns="http://www.w3.org/2000/svg" xmlns:xlink="http://www.w3.org/1999/xlink" x="0px" y="0px"
	 viewBox="0 0 390.1 295.2" style="enable-background:new 0 0 390.1 295.2;" xml:space="preserve">
<style type="text/css">
	.st0{fill:#91B820;}
	.st1{fill:#2D7323;}
</style>
<g>
	<path class="st0" d="M312.4,35.7c-2.8,1.4-6.1,0.4-7.5-2.4c-1.1-2.1-1.1-4.6-0.7-7c0.3-2.4,0.9-4.6,0.9-7c0-4.1-2-8.3-6.1-9.8
		c-1.4-0.5-3-0.5-4.4-0.1c-5.2,1.6-4.4,7.5-8.1,10.2c-0.9,0.7-2.1,1-3.2,0.7c-2.9-0.7-3.1-4.5-3.4-7.4c-0.3-3.5-1.3-7-3.6-9.6
		c-2.3-2.6-6-4.1-9.4-3.2c-3.1,0.8-5.4,3.5-6.7,6.4c-2.6,5.7-2.1,12.4-1.6,18.7c1,11.9,1.9,24,0.6,35.9c-1.3,11.9-5,23.8-12.3,33.3
		c-1.5,1.9-3.2,3.8-5.3,5c-2.1,1.2-4.9,1.6-7.1,0.5c-2.3-1.1-3.7-3.6-4.1-6c-0.7-3.3,0-6.7,0.8-10c0.9-3.5,2-6.9,3.3-10.2L244.9,47
		c2.2-5.8,4.5-11.5,5.6-17.6c1.1-6.1,0.6-12.4-1-18.4c-0.6-2.1-1.6-4.2-3.2-5.7c-1.6-1.5-3.9-2.4-6.1-1.9c-2.8,0.6-4.9,3.1-5.9,5.8
		c-1.1,2.7-1.4,5.6-2.4,8.3c-0.8,2.4-2.9,5-5.4,4.2c-0.8-0.3-1.5-0.9-1.9-1.6c-1.2-1.9-1.2-4.3-1.1-6.6c0.1-2.4,0.3-4.9-1-7
		c-0.6-1-1.5-1.7-2.6-2c-2.3-0.6-3.8,0.9-4.9,2.6c-1.9,3.1-2.7,6.7-3,10.3c-0.1,1.4-0.2,2.9-0.7,4.3c-0.5,1.4-1.5,2.6-2.9,3
		c-1.8,0.4-3.6-0.7-4.6-2.3s-1.2-3.4-1.5-5.2c0-0.1,0-0.1,0-0.2c-1.1-7.3-9.7-10.8-15.6-6.2l-1.2,0.9c-2.9,2.2-4.3,5.8-3.7,9.4
		c2.4,14.5,8.5,28.4,9.3,43.1c0.4,7.3-0.4,14.7-1.9,22c-3.3,16.9-9.7,34.3-23.5,44.7c5.2-19.9,8.7-40.2,10.4-60.7
		c1-11.3,1.2-23.3-4.8-32.9c-2.5-4-6.1-7.5-11-7.8c-2.5-0.2-5,0.6-6.7,2.5c-4.3,4.5-1,11.4-2.6,17.1c-0.5,1.9-1.8,3.8-4.3,3.6
		c-1.2-0.1-2.3-0.7-3.1-1.6c-1.9-2.1-2.2-4.9-2.7-7.5c-0.5-3.1-1.5-6.4-5.1-7.5c-1.8-0.5-3.8-0.2-5.5,0.7c-3.6,2-5.2,6-6,9.9
		c-2,9.6,0.2,19.5,3.5,28.7c3.3,9.2,7.8,18,10.6,27.3c5.1,16.9,4.5,35.5-1.6,52.1c-2.5,6.8-6.1,13-11.7,17.5c1.1-8,1.4-16.2-1-24
		c-2-6.5-5.9-12.3-10.9-16.9c-3.2-2.8-6.9-5.2-11-6c-4.2-0.8-8.8,0.1-11.8,3c-2.4,2.3-3.6,5.7-3.9,9.1c-0.3,3.3,0.3,6.7,1.1,10
		c3.5,15.4,10.3,29.9,12.7,45.5c0.2,1.5,0.1,2.7,0.2,4.2c0.1,2.7-3,4.6-5.2,3c-1.3-0.9-1.5-2.3-1.7-3.6c-0.7-4.8-1.1-9.7-3.5-13.9
		c-2.3-4.2-7.4-7.4-11.9-5.9c-3,1-5.1,3.8-6,6.9c-0.9,3-0.8,6.3-0.5,9.4c0.7,8.3,2.1,16.6,1.1,24.8c-1.3,10.5-5.5,20-13.7,26.7
		l2.1,11.8c25.7-2.7,52.3,4.3,73.6,19c3.8,2.6,8.7,2.6,12.5,0c5.5-3.8,6.5-11.5,2-16.5c-6.9-7.6-15.3-14.1-24.4-18.7
		c10.2-3.5,21.8-1.2,31.6,3.3c9.8,4.4,18.4,11,27.4,16.9c5.9,3.9,12.6,7.6,19.5,6.3c1.8-0.3,3.5-1,4.9-2.1c1.3-1.1,2.4-2.5,3.1-4.1
		c1.7-3.7,1.6-8.1,0.4-12c-1.2-3.9-3.5-7.4-6-10.6c-5.5-6.9-12.4-12.8-20.2-17c11.1-4.5,23.6-2.9,34.6,1.8
		c11,4.8,20.4,12.4,29.5,20.2c9.1,7.8,18.1,15.8,28.6,21.5c6.3,3.4,14.1,6,20.4,2.6c5.6-3,8.1-10,7.1-16.2c-0.9-5-3.7-9.5-6.7-13.7
		c-11.4-15.5-26.5-28.2-43.8-36.7c-4-2-8.1-3.7-12.5-4.6c20.3-8,49.5,9.2,64.3,17.5c10.7,6,20.9,12.6,30.7,19.9
		c3.7,2.7,8.8,2.7,12.5-0.2c5.3-4.1,5.4-12.2,0.1-16.4c-10.1-7.9-24.3-17.8-30.2-20.9c-3.8-2-1.4-6.6,2.6-5.6
		c13.2,3.3,22.2,15.9,34.5,21.7c3.4,1.6,7.9,2.5,10.6-0.1c0.9-0.8,1.5-2,1.8-3.1c1.4-4.4-0.2-9.2-2.6-13.2
		c-4.2-7.3-10.8-12.9-17.6-17.8c-20.4-14.6-41-23.4-66.7-27.1c27.7-16.1,73.4,21.6,91.5,15.3c1.5-0.5,3-1.4,4.1-2.6
		c3.8-4,1.6-8.5-1.4-11.3c-3.9-3.5-9-5.2-13.3-8.2c-1.5-1.1-2.5-2.8-2.3-4.6c0.3-3.2,3.5-4,6.2-4.3c4.2-0.4,8.5-0.4,12.1-2.9
		c1.3-0.9,2.4-2.1,3-3.6c1.9-4.7-1.7-8.3-5.6-9.6c-3-1-6.1-1-9.2-1.5c-3.4-0.5-6.8-1.6-9.9-3.2c-1.6-0.8-3.4-2.1-3.2-4.1
		c0.1-0.8,0.5-1.5,1-2.1c1.3-1.3,3.2-1.6,4.9-1.7c4.9-0.3,9.7,0.9,14.6,0.9c6.2,0,13.1-2.2,14.7-9.2c0.4-1.9,0.3-3.9-0.2-5.8
		c-1.8-6-7-9.7-12.6-11.5c-3.7-1.2-7.6-1.6-11.4-2.6c-0.6-0.1-1-0.6-1.2-1.1c-0.2-0.8,0.4-1.4,1.1-1.8c2.7-1.9,5.3-3.7,8-5.6
		c2.1-1.5,4.2-3,5.9-4.9c1.7-1.9,2.9-4.4,2.9-6.9c0-1.5-0.5-2.9-1.1-4.3c-2.2-4.7-6.6-8.2-11.7-9.2c-5.4-1-10.9,0.8-15.6,3.4
		c-1.9,1-3.7,2.1-5.7,2.7c-2,0.6-4.4,0.5-6-0.8c-2.1-1.6-2.6-4.8-1.9-7.4c0.7-2.6,2.2-4.9,3.5-7.3c1.3-2.4,2.3-5.1,1.8-7.7
		c-0.4-2.1-1.8-4-3.4-5.4c-4.8-4-12.6-4-17.4,0c-2.6,2.2-4.3,5.2-6.2,7.9C316.7,32.3,314.8,34.5,312.4,35.7L312.4,35.7z"/>
	<path class="st1" d="M10.6,295.2L0,281.5L310.2,86.8l9.1,14.5L10.6,295.2z"/>
</g>
</svg>
