<svg xmlns="http://www.w3.org/2000/svg" xmlns:xlink="http://www.w3.org/1999/xlink" width="500" zoomAndPan="magnify" viewBox="0 0 375 374.999991" height="500" preserveAspectRatio="xMidYMid meet" version="1.0"><defs><clipPath id="fa5805aee5"><path d="M 43 16.121094 L 178 16.121094 L 178 136 L 43 136 Z M 43 16.121094 " clip-rule="nonzero"/></clipPath></defs><path fill="#66dc6f" d="M 166.296875 321.589844 C 166.296875 321.589844 146.269531 236.21875 9.910156 277.367188 C 9.910156 277.367188 97.40625 415.332031 166.296875 321.589844 Z M 166.296875 321.589844 " fill-opacity="1" fill-rule="nonzero"/><path fill="#1c991c" d="M 9.910156 277.367188 C 9.910156 277.367188 34.285156 315.792969 67.429688 338.304688 C 82.988281 326.714844 103.902344 304.636719 105 269.054688 C 82.316406 264.050781 51.539062 264.796875 9.910156 277.367188 Z M 9.910156 277.367188 " fill-opacity="1" fill-rule="nonzero"/><path fill="#232020" d="M 161.644531 302.578125 C 167.84375 312.304688 169.765625 320.144531 169.871094 320.746094 C 170 321.273438 170.007812 321.800781 169.898438 322.332031 C 169.789062 322.863281 169.574219 323.347656 169.25 323.78125 C 152.042969 347.183594 132.105469 358.667969 109.953125 357.90625 C 56.328125 356.0625 9.28125 283.269531 6.820312 279.402344 L 6.820312 279.34375 C 6.667969 279.101562 6.546875 278.84375 6.453125 278.574219 C 6.355469 278.304688 6.296875 278.027344 6.265625 277.746094 C 6.234375 277.460938 6.238281 277.175781 6.273438 276.894531 C 6.3125 276.609375 6.378906 276.335938 6.476562 276.066406 C 6.578125 275.800781 6.707031 275.546875 6.863281 275.308594 C 7.023438 275.070312 7.207031 274.855469 7.414062 274.660156 C 7.621094 274.464844 7.851562 274.292969 8.097656 274.152344 C 8.34375 274.007812 8.605469 273.894531 8.878906 273.8125 C 61.578125 257.914062 103.570312 258.664062 133.648438 275.992188 C 139.320312 279.222656 144.527344 283.085938 149.261719 287.582031 C 153.996094 292.082031 158.121094 297.078125 161.644531 302.578125 Z M 162.21875 320.855469 C 160.363281 315.15625 152.53125 295.382812 129.777344 282.320312 C 102.457031 266.609375 64.136719 265.6875 15.820312 279.492188 C 26.59375 294.992188 67.183594 349.023438 110.246094 350.5 C 129.351562 351.148438 146.828125 341.175781 162.21875 320.855469 Z M 162.21875 320.855469 " fill-opacity="1" fill-rule="nonzero"/><path fill="#ffffff" d="M 90.195312 328.179688 C 90.5 328.652344 90.71875 329.160156 90.851562 329.703125 C 90.980469 330.25 91.019531 330.800781 90.964844 331.359375 C 90.910156 331.914062 90.761719 332.449219 90.527344 332.957031 C 90.289062 333.464844 89.976562 333.921875 89.585938 334.320312 C 89.191406 334.722656 88.746094 335.046875 88.246094 335.296875 C 87.742188 335.546875 87.214844 335.707031 86.65625 335.777344 C 86.101562 335.84375 85.546875 335.820312 85 335.703125 C 84.453125 335.585938 83.941406 335.378906 83.460938 335.085938 C 82.390625 334.441406 57.007812 319.144531 34.75 295.949219 C 34.539062 295.714844 34.351562 295.460938 34.1875 295.1875 C 34.027344 294.914062 33.890625 294.628906 33.785156 294.332031 C 33.675781 294.03125 33.597656 293.726562 33.550781 293.414062 C 33.503906 293.097656 33.484375 292.785156 33.496094 292.46875 C 33.507812 292.148438 33.550781 291.835938 33.621094 291.527344 C 33.695312 291.21875 33.796875 290.921875 33.925781 290.628906 C 34.054688 290.339844 34.210938 290.066406 34.394531 289.808594 C 34.578125 289.546875 34.785156 289.308594 35.011719 289.089844 C 35.242188 288.871094 35.488281 288.671875 35.753906 288.5 C 36.023438 288.328125 36.304688 288.183594 36.597656 288.066406 C 36.890625 287.949219 37.195312 287.859375 37.507812 287.800781 C 37.816406 287.738281 38.132812 287.710938 38.449219 287.710938 C 38.765625 287.710938 39.082031 287.742188 39.390625 287.804688 C 39.703125 287.867188 40.007812 287.957031 40.300781 288.074219 C 40.59375 288.195312 40.875 288.339844 41.140625 288.515625 C 41.40625 288.6875 41.652344 288.882812 41.878906 289.105469 C 63.1875 311.304688 88.265625 326.445312 88.542969 326.601562 C 89.21875 326.996094 89.769531 327.523438 90.195312 328.179688 Z M 90.195312 328.179688 " fill-opacity="1" fill-rule="nonzero"/><path fill="#232020" d="M 204.003906 330.132812 C 203.039062 330.132812 202.140625 330.132812 201.308594 330.074219 C 119.882812 326.394531 83.851562 300.027344 82.355469 298.90625 C 81.945312 298.601562 81.613281 298.226562 81.351562 297.789062 C 81.089844 297.351562 80.925781 296.878906 80.851562 296.375 C 80.78125 295.871094 80.804688 295.371094 80.933594 294.875 C 81.058594 294.382812 81.273438 293.929688 81.578125 293.523438 C 81.886719 293.113281 82.257812 292.78125 82.695312 292.519531 C 83.132812 292.261719 83.605469 292.09375 84.109375 292.019531 C 84.617188 291.949219 85.113281 291.976562 85.609375 292.101562 C 86.101562 292.226562 86.554688 292.441406 86.960938 292.75 C 87.050781 292.816406 95.941406 299.332031 114.398438 306.214844 C 131.46875 312.53125 160.484375 320.527344 201.632812 322.390625 C 217.671875 323.136719 260.613281 316.53125 289.203125 300.835938 C 289.644531 300.613281 290.113281 300.484375 290.609375 300.445312 C 291.105469 300.40625 291.589844 300.460938 292.0625 300.609375 C 292.535156 300.757812 292.964844 300.988281 293.351562 301.300781 C 293.734375 301.617188 294.046875 301.992188 294.285156 302.425781 C 294.523438 302.859375 294.671875 303.324219 294.734375 303.816406 C 294.792969 304.308594 294.757812 304.796875 294.628906 305.273438 C 294.5 305.753906 294.289062 306.191406 293.988281 306.589844 C 293.691406 306.984375 293.328125 307.3125 292.90625 307.570312 C 264.550781 323.160156 222.511719 330.132812 204.003906 330.132812 Z M 204.003906 330.132812 " fill-opacity="1" fill-rule="nonzero"/><path fill="#66dc6f" d="M 54.554688 129.503906 C 54.554688 129.503906 137.828125 156.960938 173.949219 19.257812 C 173.949219 19.257812 10.570312 21.800781 54.554688 129.503906 Z M 54.554688 129.503906 " fill-opacity="1" fill-rule="nonzero"/><path fill="#1c991c" d="M 173.949219 19.257812 C 173.949219 19.257812 128.453125 20.003906 91.945312 36.464844 C 93.703125 55.78125 101.671875 85.167969 131.394531 104.664062 C 147.480469 87.921875 162.90625 61.28125 173.949219 19.257812 Z M 173.949219 19.257812 " fill-opacity="1" fill-rule="nonzero"/><g clip-path="url(#fa5805aee5)"><path fill="#232020" d="M 73.195312 135.457031 C 61.644531 135.660156 53.976562 133.214844 53.394531 133.019531 C 52.882812 132.84375 52.433594 132.574219 52.042969 132.203125 C 51.652344 131.835938 51.351562 131.402344 51.148438 130.902344 C 40.144531 104.023438 40.78125 81.007812 52.980469 62.515625 C 82.570312 17.714844 169.214844 15.597656 173.800781 15.515625 L 173.867188 15.515625 C 174.449219 15.507812 175.003906 15.628906 175.53125 15.878906 C 176.054688 16.128906 176.5 16.480469 176.859375 16.9375 C 177.21875 17.394531 177.457031 17.902344 177.574219 18.472656 C 177.691406 19.039062 177.675781 19.601562 177.527344 20.164062 C 163.550781 73.445312 141.03125 108.878906 110.492188 125.492188 C 104.773438 128.640625 98.757812 131.058594 92.449219 132.742188 C 86.140625 134.429688 79.726562 135.332031 73.195312 135.457031 Z M 57.304688 126.40625 C 63.140625 127.804688 84.097656 131.449219 107.109375 118.859375 C 134.792969 103.746094 155.566406 71.558594 169.027344 23.148438 C 150.179688 24.246094 82.898438 30.628906 59.167969 66.605469 C 48.636719 82.558594 48.015625 102.667969 57.304688 126.40625 Z M 57.304688 126.40625 " fill-opacity="1" fill-rule="nonzero"/></g><path fill="#ffffff" d="M 88.660156 61.152344 C 88.105469 61.164062 87.5625 61.082031 87.035156 60.90625 C 86.503906 60.734375 86.019531 60.480469 85.578125 60.140625 C 85.132812 59.804688 84.757812 59.402344 84.453125 58.941406 C 84.144531 58.476562 83.921875 57.972656 83.785156 57.433594 C 83.648438 56.894531 83.601562 56.347656 83.648438 55.796875 C 83.695312 55.242188 83.832031 54.710938 84.054688 54.199219 C 84.28125 53.691406 84.585938 53.234375 84.964844 52.828125 C 85.34375 52.421875 85.78125 52.089844 86.273438 51.832031 C 87.382812 51.253906 113.679688 37.617188 145.078125 30.71875 C 145.394531 30.648438 145.714844 30.609375 146.039062 30.605469 C 146.363281 30.597656 146.6875 30.625 147.007812 30.679688 C 147.324219 30.738281 147.636719 30.824219 147.9375 30.945312 C 148.238281 31.0625 148.527344 31.207031 148.800781 31.382812 C 149.074219 31.558594 149.328125 31.757812 149.5625 31.984375 C 149.796875 32.207031 150.003906 32.453125 150.191406 32.71875 C 150.375 32.984375 150.535156 33.265625 150.664062 33.566406 C 150.792969 33.863281 150.894531 34.167969 150.960938 34.484375 C 151.03125 34.800781 151.070312 35.121094 151.078125 35.449219 C 151.082031 35.773438 151.058594 36.09375 151 36.414062 C 150.945312 36.730469 150.855469 37.042969 150.738281 37.34375 C 150.621094 37.648438 150.472656 37.933594 150.296875 38.207031 C 150.125 38.480469 149.921875 38.734375 149.699219 38.96875 C 149.472656 39.203125 149.226562 39.410156 148.960938 39.597656 C 148.695312 39.78125 148.414062 39.941406 148.117188 40.070312 C 147.820312 40.199219 147.511719 40.300781 147.195312 40.371094 C 117.144531 46.953125 91.121094 60.457031 90.859375 60.570312 C 90.171875 60.9375 89.441406 61.132812 88.660156 61.152344 Z M 88.660156 61.152344 " fill-opacity="1" fill-rule="nonzero"/><path fill="#232020" d="M 4.234375 248.839844 L 4.046875 248.839844 C 3.535156 248.816406 3.050781 248.695312 2.585938 248.480469 C 2.125 248.261719 1.722656 247.964844 1.378906 247.589844 C 1.035156 247.210938 0.777344 246.78125 0.601562 246.300781 C 0.429688 245.820312 0.355469 245.324219 0.378906 244.816406 C 1.996094 210.78125 19.621094 168.886719 29.035156 154.933594 C 74.691406 87.40625 115.992188 70.445312 117.726562 69.757812 C 118.199219 69.570312 118.691406 69.480469 119.203125 69.488281 C 119.710938 69.492188 120.203125 69.597656 120.667969 69.800781 C 121.136719 70.003906 121.550781 70.289062 121.90625 70.652344 C 122.261719 71.019531 122.53125 71.4375 122.722656 71.914062 C 122.910156 72.386719 123 72.878906 122.992188 73.386719 C 122.984375 73.898438 122.882812 74.386719 122.679688 74.855469 C 122.476562 75.324219 122.195312 75.738281 121.828125 76.09375 C 121.460938 76.449219 121.042969 76.71875 120.570312 76.910156 C 120.0625 77.109375 79.527344 93.988281 35.40625 159.242188 C 26.429688 172.523438 9.613281 212.601562 8.070312 245.175781 C 8.046875 245.667969 7.933594 246.140625 7.730469 246.589844 C 7.523438 247.039062 7.242188 247.433594 6.886719 247.777344 C 6.527344 248.117188 6.121094 248.378906 5.660156 248.5625 C 5.203125 248.746094 4.726562 248.839844 4.234375 248.839844 Z M 4.234375 248.839844 " fill-opacity="1" fill-rule="nonzero"/><path fill="#66dc6f" d="M 297.453125 121.15625 C 297.453125 121.15625 241.535156 188.695312 356.652344 272.496094 C 356.652344 272.496094 413.773438 119.433594 297.453125 121.15625 Z M 297.453125 121.15625 " fill-opacity="1" fill-rule="nonzero"/><path fill="#1c991c" d="M 356.652344 272.496094 C 356.652344 272.496094 372.558594 229.851562 370.480469 189.855469 C 351.851562 184.453125 321.597656 181.140625 292.597656 201.746094 C 302.316406 222.84375 321.5 246.910156 356.652344 272.496094 Z M 356.652344 272.496094 " fill-opacity="1" fill-rule="nonzero"/><path fill="#232020" d="M 285.109375 136.339844 C 289.164062 125.492188 294.207031 119.261719 294.59375 118.761719 C 294.941406 118.34375 295.363281 118.015625 295.851562 117.78125 C 296.339844 117.546875 296.859375 117.421875 297.402344 117.414062 C 326.4375 116.988281 347.632812 125.949219 360.410156 144.070312 C 391.34375 187.941406 361.75 269.398438 360.148438 273.699219 L 360.148438 273.769531 C 360.046875 274.035156 359.914062 274.285156 359.753906 274.519531 C 359.59375 274.753906 359.410156 274.96875 359.199219 275.164062 C 358.992188 275.355469 358.761719 275.523438 358.515625 275.664062 C 358.269531 275.808594 358.007812 275.917969 357.734375 276 C 357.460938 276.082031 357.183594 276.132812 356.898438 276.152344 C 356.617188 276.167969 356.332031 276.15625 356.050781 276.109375 C 355.769531 276.0625 355.5 275.984375 355.234375 275.875 C 354.972656 275.769531 354.722656 275.632812 354.492188 275.464844 C 309.960938 243.050781 285.183594 209.136719 280.851562 174.683594 C 280 168.214844 279.933594 161.738281 280.652344 155.253906 C 281.375 148.769531 282.859375 142.464844 285.109375 136.339844 Z M 299.324219 124.84375 C 295.898438 129.765625 284.878906 147.9375 288.214844 173.972656 C 292.214844 205.222656 314.601562 236.339844 354.796875 266.503906 C 360.648438 248.546875 379.195312 183.570312 354.355469 148.363281 C 343.320312 132.742188 324.820312 124.835938 299.332031 124.84375 Z M 299.324219 124.84375 " fill-opacity="1" fill-rule="nonzero"/><path fill="#ffffff" d="M 348.671875 177.863281 C 348.863281 177.339844 349.136719 176.863281 349.492188 176.433594 C 349.847656 176.003906 350.261719 175.644531 350.738281 175.355469 C 351.210938 175.066406 351.722656 174.863281 352.265625 174.746094 C 352.8125 174.628906 353.359375 174.601562 353.914062 174.671875 C 354.464844 174.738281 354.992188 174.894531 355.492188 175.140625 C 355.992188 175.386719 356.4375 175.707031 356.828125 176.105469 C 357.21875 176.5 357.535156 176.949219 357.773438 177.453125 C 358.015625 177.957031 358.164062 178.484375 358.226562 179.039062 C 358.359375 180.28125 361.503906 209.710938 356.460938 241.492188 C 356.398438 241.804688 356.308594 242.109375 356.191406 242.40625 C 356.074219 242.699219 355.929688 242.980469 355.753906 243.246094 C 355.582031 243.515625 355.386719 243.761719 355.164062 243.992188 C 354.945312 244.222656 354.703125 244.425781 354.445312 244.609375 C 354.183594 244.792969 353.910156 244.949219 353.617188 245.078125 C 353.328125 245.207031 353.027344 245.308594 352.71875 245.378906 C 352.40625 245.453125 352.09375 245.492188 351.777344 245.503906 C 351.457031 245.515625 351.140625 245.496094 350.828125 245.445312 C 350.515625 245.394531 350.207031 245.316406 349.910156 245.207031 C 349.609375 245.097656 349.324219 244.960938 349.050781 244.796875 C 348.78125 244.632812 348.523438 244.445312 348.289062 244.234375 C 348.054688 244.019531 347.839844 243.785156 347.648438 243.53125 C 347.457031 243.277344 347.292969 243.007812 347.152344 242.722656 C 347.015625 242.433594 346.90625 242.136719 346.824219 241.832031 C 346.742188 241.523438 346.691406 241.210938 346.667969 240.894531 C 346.648438 240.578125 346.65625 240.261719 346.695312 239.945312 C 351.523438 209.554688 348.425781 180.40625 348.394531 180.09375 C 348.316406 179.328125 348.410156 178.585938 348.671875 177.863281 Z M 348.671875 177.863281 " fill-opacity="1" fill-rule="nonzero"/><path fill="#232020" d="M 326.226562 205.613281 C 325.71875 205.613281 325.230469 205.515625 324.757812 205.320312 C 324.289062 205.128906 323.875 204.851562 323.511719 204.496094 C 323.152344 204.136719 322.875 203.722656 322.675781 203.253906 C 322.480469 202.785156 322.378906 202.296875 322.375 201.789062 C 322.375 201.160156 321.378906 157.289062 276.738281 92.484375 C 267.632812 79.28125 236.441406 49.027344 206.664062 35.714844 C 206.199219 35.507812 205.792969 35.21875 205.441406 34.847656 C 205.089844 34.476562 204.824219 34.054688 204.640625 33.578125 C 204.457031 33.101562 204.375 32.605469 204.386719 32.097656 C 204.402344 31.585938 204.511719 31.097656 204.722656 30.632812 C 204.929688 30.164062 205.21875 29.757812 205.589844 29.40625 C 205.960938 29.054688 206.386719 28.789062 206.863281 28.605469 C 207.339844 28.425781 207.832031 28.339844 208.34375 28.355469 C 208.855469 28.371094 209.34375 28.480469 209.808594 28.691406 C 240.894531 42.585938 273.535156 74.28125 283.066406 88.125 C 329.316406 155.238281 330.066406 199.882812 330.074219 201.746094 C 330.074219 202.253906 329.980469 202.746094 329.785156 203.21875 C 329.59375 203.691406 329.316406 204.109375 328.957031 204.472656 C 328.597656 204.832031 328.183594 205.113281 327.714844 205.3125 C 327.242188 205.507812 326.753906 205.609375 326.242188 205.613281 Z M 326.226562 205.613281 " fill-opacity="1" fill-rule="nonzero"/></svg>