<svg width="200" height="188" viewBox="0 0 200 188" fill="none" xmlns="http://www.w3.org/2000/svg">
<mask id="mask0_135_174" style="mask-type:luminance" maskUnits="userSpaceOnUse" x="0" y="0" width="200" height="188">
<path d="M1.5 2.04175H198.5V185.677H1.5V2.04175Z" fill="white" stroke="white" stroke-width="3"/>
</mask>
<g mask="url(#mask0_135_174)">
<path d="M145.109 12.8436L144.518 14.1998L145.866 14.8095C176.908 28.8522 198.5 60.0444 198.5 96.2762C198.5 98.3313 198.428 100.37 198.29 102.392L164.179 102.941C164.436 100.785 164.568 98.5895 164.568 96.3647C164.568 74.0482 151.347 54.8263 132.31 46.0545L130.919 45.4135L130.307 46.8178L125.195 58.5536L97.1403 14.7543L149.544 2.66761L145.109 12.8436ZM53.8984 101.929L54.0433 103.344L55.4641 103.274L64.0096 102.855L37.1208 147.381L3.04927 105.832L18.3127 105.087L19.8545 105.012L19.7351 103.473C19.5499 101.086 19.4375 98.6934 19.4375 96.2762C19.4375 60.8939 40.0273 30.3074 69.9038 15.8206L86.1501 45.9132C66.9638 54.6289 53.6146 73.9331 53.6146 96.3647C53.6146 98.2443 53.711 100.097 53.8984 101.929ZM138.714 143.184L139.968 142.391L139.187 141.128L132.158 129.758L184.191 131.756L164.218 181.621L158.583 172.508L157.789 171.224L156.51 172.026C142.736 180.668 126.444 185.677 108.969 185.677C87.9283 185.677 68.589 178.429 53.3057 166.301L72.441 137.937C82.2146 146.539 95.0378 151.766 109.094 151.766C119.992 151.766 130.144 148.607 138.714 143.184Z" fill="white" stroke="black" stroke-width="3"/>
</g>
</svg>
