<svg class="v-wave__forest" viewBox="0 0 1437 417" fill="none" xmlns="http://www.w3.org/2000/svg"><mask id="mask0_419_5832" style="mask-type:alpha;" maskUnits="userSpaceOnUse" x="-244" y="0" width="1920" height="417"><rect x="-244" width="1920" height="417" fill="#C4C4C4"></rect></mask><g mask="url(#mask0_419_5832)"><path d="M257.6 368.344C273.468 363.889 378.395 331.202 325.115 261.419C278.475 200.334 229.843 269.528 217.937 288.657C217.89 288.732 217.817 288.786 217.731 288.81C217.646 288.834 217.554 288.825 217.475 288.786C217.395 288.746 217.333 288.679 217.302 288.597C217.27 288.515 217.27 288.425 217.303 288.343C228.812 260.268 277.515 123.031 115.165 154.719C-6.68296 178.498 47.234 302.318 50.7393 310.049C50.7607 310.096 50.7714 310.146 50.7707 310.197C50.77 310.248 50.7578 310.299 50.7351 310.345C50.7124 310.391 50.6797 310.431 50.6394 310.463C50.599 310.495 50.552 310.518 50.5017 310.53C44.1185 312.183 -34.5754 334.656 18.0013 418.142C55.2403 477.274 133.34 443.79 140.272 440.667C140.326 440.642 140.385 440.631 140.444 440.635C140.504 440.638 140.561 440.657 140.611 440.688C140.661 440.719 140.703 440.762 140.731 440.814C140.76 440.865 140.776 440.922 140.776 440.981C140.919 451.19 139.882 478.768 130.156 542.375C130.004 543.313 130.059 544.273 130.319 545.189C130.579 546.104 131.036 546.954 131.66 547.678C132.284 548.403 133.06 548.985 133.933 549.386C134.807 549.787 135.758 549.996 136.722 550H190.475C191.438 549.996 192.39 549.787 193.263 549.386C194.137 548.985 194.912 548.403 195.536 547.678C196.16 546.954 196.618 546.104 196.877 545.189C197.137 544.273 197.193 543.313 197.041 542.375C186.321 472.264 186.157 445.926 186.492 438.371C186.495 438.311 186.513 438.253 186.546 438.202C186.578 438.151 186.623 438.109 186.676 438.08C186.73 438.051 186.79 438.036 186.851 438.037C186.911 438.037 186.971 438.053 187.024 438.083C193.84 441.877 268.144 481.971 295.105 443.065C339.172 379.476 270.578 370.197 257.662 369.032C257.58 369.023 257.504 368.986 257.446 368.928C257.388 368.87 257.353 368.794 257.346 368.713C257.338 368.632 257.36 368.551 257.406 368.484C257.453 368.417 257.521 368.367 257.6 368.344V368.344Z" fill="#F7BC00"></path><path d="M1043.08 204.758C1054.99 201.417 1133.76 176.902 1093.76 124.565C1058.75 78.7503 1022.24 130.646 1013.3 144.993C1013.27 145.049 1013.21 145.09 1013.15 145.107C1013.08 145.125 1013.01 145.119 1012.95 145.089C1012.89 145.06 1012.85 145.009 1012.82 144.948C1012.8 144.886 1012.8 144.818 1012.82 144.757C1021.47 123.701 1058.03 20.7733 936.146 44.5395C844.67 62.3738 885.147 155.239 887.779 161.037C887.795 161.072 887.803 161.11 887.802 161.148C887.802 161.186 887.793 161.224 887.776 161.259C887.759 161.293 887.734 161.323 887.704 161.347C887.674 161.371 887.638 161.388 887.6 161.397C882.808 162.637 823.73 179.492 863.201 242.107C891.158 286.456 949.791 261.343 954.995 259C955.035 258.981 955.08 258.973 955.124 258.976C955.169 258.979 955.212 258.993 955.249 259.016C955.287 259.039 955.318 259.072 955.34 259.11C955.361 259.149 955.373 259.192 955.373 259.236C955.48 266.893 954.702 287.576 947.4 335.281C947.286 335.985 947.328 336.705 947.523 337.392C947.718 338.078 948.061 338.715 948.53 339.259C948.998 339.802 949.58 340.239 950.236 340.54C950.892 340.84 951.606 340.997 952.33 341H992.684C993.408 340.997 994.122 340.84 994.778 340.54C995.434 340.239 996.016 339.802 996.484 339.259C996.952 338.715 997.296 338.078 997.491 337.392C997.686 336.705 997.728 335.985 997.614 335.281C989.566 282.698 989.442 262.945 989.694 257.278C989.696 257.233 989.71 257.19 989.734 257.151C989.759 257.113 989.792 257.082 989.833 257.06C989.873 257.038 989.918 257.027 989.963 257.027C990.009 257.028 990.054 257.04 990.094 257.062C995.21 259.907 1050.99 289.978 1071.23 260.799C1104.32 213.107 1052.82 206.148 1043.12 205.274C1043.06 205.267 1043.01 205.24 1042.96 205.196C1042.92 205.152 1042.89 205.095 1042.89 205.035C1042.88 204.974 1042.9 204.913 1042.93 204.863C1042.97 204.813 1043.02 204.776 1043.08 204.758V204.758Z" fill="#0094C7"></path><g clip-path="url(#clip0_419_5832)"><path d="M679.258 538.914C686.35 496.746 688.609 447.473 689.319 405.704C689.32 405.628 689.304 405.553 689.272 405.484C689.241 405.415 689.194 405.354 689.135 405.306C689.076 405.257 689.007 405.222 688.933 405.203C688.859 405.184 688.781 405.181 688.706 405.195C657.857 410.931 612.567 403.213 611.047 356.803C611.044 356.701 611.01 356.602 610.949 356.519C610.888 356.436 610.803 356.374 610.706 356.339C610.608 356.304 610.502 356.3 610.402 356.325C610.301 356.351 610.211 356.405 610.143 356.482C588.725 380.506 483.339 360.389 489.704 258.36C491.141 235.36 514.173 192.611 553.683 194.99C553.763 194.995 553.844 194.981 553.918 194.95C553.992 194.92 554.057 194.872 554.11 194.812C554.162 194.752 554.199 194.68 554.218 194.603C554.237 194.526 554.238 194.446 554.22 194.369C526.703 74.6658 642.165 72.3115 671.839 95.8542C671.895 95.8998 671.96 95.9332 672.03 95.9522C672.1 95.9712 672.173 95.9754 672.245 95.9644C672.316 95.9535 672.385 95.9276 672.446 95.8886C672.507 95.8496 672.558 95.7983 672.597 95.7382C723.363 19.4257 851.366 42.6272 841.173 135.481C841.163 135.577 841.18 135.675 841.223 135.762C841.266 135.849 841.334 135.922 841.418 135.973C841.501 136.023 841.598 136.05 841.696 136.048C841.795 136.047 841.891 136.018 841.973 135.966C909.627 92.7425 968.926 180.345 924.678 231.382C924.627 231.44 924.589 231.509 924.569 231.584C924.549 231.659 924.547 231.737 924.562 231.813C924.577 231.889 924.61 231.96 924.658 232.021C924.706 232.083 924.767 232.132 924.838 232.167C946.615 242.976 957.47 262.444 960.164 283.537C966.623 333.84 912.841 396.348 845.603 365.425C845.52 365.387 845.428 365.372 845.337 365.38C845.246 365.389 845.159 365.421 845.084 365.473C845.01 365.525 844.951 365.596 844.913 365.678C844.875 365.76 844.86 365.851 844.869 365.94C847.13 396.338 801.119 419.768 764.262 401.606C764.184 401.566 764.096 401.547 764.008 401.551C763.92 401.554 763.835 401.579 763.759 401.623C763.684 401.668 763.621 401.731 763.577 401.806C763.533 401.881 763.509 401.966 763.507 402.053C762.96 446.067 763.421 496.712 771.283 538.74C771.536 540.117 771.48 541.531 771.118 542.884C770.755 544.236 770.096 545.494 769.186 546.568C768.277 547.642 767.139 548.506 765.853 549.099C764.567 549.692 763.164 550 761.744 550H688.834C687.428 550.001 686.04 549.7 684.764 549.12C683.488 548.539 682.355 547.693 681.444 546.638C680.534 545.584 679.866 544.347 679.489 543.013C679.111 541.68 679.032 540.281 679.258 538.914Z" fill="#008009"></path></g><g clip-path="url(#clip1_419_5832)"><path d="M1211.61 541.132C1217.29 507.397 1219.1 467.979 1219.67 434.563C1219.67 434.502 1219.66 434.442 1219.63 434.387C1219.61 434.332 1219.57 434.283 1219.52 434.244C1219.48 434.206 1219.42 434.177 1219.36 434.162C1219.3 434.147 1219.24 434.145 1219.18 434.156C1194.47 438.745 1158.2 432.57 1156.99 395.442C1156.98 395.361 1156.96 395.282 1156.91 395.215C1156.86 395.149 1156.79 395.099 1156.71 395.071C1156.63 395.044 1156.55 395.04 1156.47 395.06C1156.39 395.081 1156.32 395.124 1156.26 395.186C1139.11 414.405 1054.71 398.311 1059.81 316.688C1060.96 298.288 1079.4 264.089 1111.04 265.992C1111.11 265.996 1111.17 265.985 1111.23 265.96C1111.29 265.936 1111.34 265.898 1111.39 265.849C1111.43 265.801 1111.46 265.744 1111.47 265.682C1111.49 265.621 1111.49 265.557 1111.47 265.495C1089.44 169.733 1181.91 167.849 1205.67 186.683C1205.72 186.72 1205.77 186.747 1205.82 186.762C1205.88 186.777 1205.94 186.78 1206 186.772C1206.05 186.763 1206.11 186.742 1206.16 186.711C1206.21 186.68 1206.25 186.639 1206.28 186.591C1246.93 125.541 1349.45 144.102 1341.28 218.385C1341.27 218.462 1341.29 218.54 1341.32 218.609C1341.36 218.679 1341.41 218.738 1341.48 218.778C1341.55 218.819 1341.62 218.84 1341.7 218.839C1341.78 218.838 1341.86 218.815 1341.92 218.772C1396.1 184.194 1443.6 254.276 1408.16 295.105C1408.12 295.152 1408.09 295.207 1408.07 295.267C1408.06 295.327 1408.05 295.39 1408.07 295.45C1408.08 295.511 1408.1 295.568 1408.14 295.617C1408.18 295.666 1408.23 295.706 1408.29 295.733C1425.73 304.381 1434.42 319.956 1436.58 336.83C1441.75 377.072 1398.68 427.078 1344.83 402.34C1344.76 402.31 1344.69 402.298 1344.62 402.304C1344.55 402.311 1344.48 402.337 1344.42 402.379C1344.36 402.42 1344.31 402.477 1344.28 402.543C1344.25 402.608 1344.24 402.68 1344.24 402.752C1346.05 427.07 1309.21 445.814 1279.69 431.285C1279.63 431.253 1279.56 431.238 1279.49 431.24C1279.42 431.243 1279.35 431.263 1279.29 431.299C1279.23 431.334 1279.18 431.385 1279.14 431.445C1279.1 431.505 1279.09 431.573 1279.08 431.642C1278.65 466.854 1279.01 507.369 1285.31 540.992C1285.51 542.093 1285.47 543.225 1285.18 544.307C1284.89 545.389 1284.36 546.395 1283.63 547.254C1282.9 548.113 1281.99 548.805 1280.96 549.279C1279.93 549.753 1278.81 550 1277.67 550H1219.28C1218.16 550 1217.04 549.76 1216.02 549.296C1215 548.831 1214.09 548.154 1213.36 547.31C1212.63 546.467 1212.1 545.478 1211.8 544.411C1211.49 543.344 1211.43 542.225 1211.61 541.132Z" fill="#A4D24F"></path></g><path d="M477.206 116.619C477.134 116.619 477.066 116.59 477.015 116.54C476.965 116.489 476.936 116.42 476.936 116.349C476.936 116.277 476.965 116.209 477.015 116.158C477.066 116.107 477.134 116.079 477.206 116.079C484.81 114.67 512.994 107.322 505.395 76.6847C497.123 43.3441 467.664 54.7012 460.816 57.8504C460.76 57.8757 460.696 57.8806 460.636 57.8643C460.577 57.848 460.524 57.8114 460.488 57.7609C460.452 57.7103 460.434 57.6488 460.438 57.5868C460.442 57.5247 460.467 57.4659 460.51 57.4203C463.99 53.688 473.964 41.0353 466.833 24.9184C462.208 14.4521 450.934 -2.00313 425.331 5.63423C381.384 18.7513 402.236 52.8116 406.936 59.6086C406.969 59.6593 406.984 59.7196 406.978 59.7799C406.973 59.8401 406.947 59.8967 406.906 59.9407C406.865 59.9847 406.81 60.0135 406.75 60.0224C406.691 60.0314 406.63 60.02 406.577 59.9901C399.972 55.8025 373.374 44.5552 363.267 71.3814C355.408 92.2383 372.236 103.534 375.261 105.573C375.306 105.603 375.342 105.646 375.362 105.696C375.382 105.747 375.387 105.802 375.375 105.855C375.364 105.908 375.336 105.956 375.297 105.994C375.257 106.031 375.207 106.055 375.153 106.063C371.431 106.644 356.254 112.883 353.874 126.578C352.566 134.1 355.13 143.871 365.567 156.191C380.072 173.3 415.12 157.527 419.494 154.732C419.533 154.706 419.579 154.691 419.626 154.689C419.673 154.687 419.72 154.697 419.762 154.719C419.804 154.74 419.839 154.773 419.865 154.813C419.89 154.853 419.904 154.899 419.906 154.946C420.584 171.059 422.755 241.505 411.529 292.778C410.793 296.142 413.001 298.897 416.435 298.897H447.156C450.589 298.897 452.799 296.145 452.062 292.778C441.465 244.384 442.805 178.896 443.559 158.155C443.56 158.103 443.575 158.053 443.604 158.01C443.632 157.967 443.672 157.933 443.719 157.913C443.766 157.892 443.818 157.885 443.869 157.893C443.92 157.9 443.967 157.923 444.006 157.957C451.269 164.453 485.429 192.478 504.301 163.355C528.246 126.414 486.668 118.021 477.206 116.619Z" fill="#FFAF87"></path><path d="M750.038 190.958C745.576 185.118 737.842 183.339 731.023 184.651C717.396 187.275 703.512 195.971 697.614 200.005C697.544 200.068 697.451 200.1 697.357 200.094C697.263 200.089 697.175 200.046 697.112 199.976C697.049 199.906 697.017 199.814 697.023 199.721C697.028 199.627 697.071 199.54 697.142 199.477C706.555 189.338 737.187 156.831 728.928 139.224C725.617 132.145 716.632 130.54 709.378 132.399C697.298 135.478 680.628 145.697 676.459 148.328C676.395 148.368 676.32 148.386 676.245 148.381C676.17 148.375 676.099 148.347 676.041 148.298C675.984 148.25 675.944 148.185 675.926 148.112C675.908 148.039 675.915 147.963 675.944 147.894C677.814 143.486 684.825 125.857 686.305 105.973C688.433 77.3393 682.9 47.0178 649.236 50.2356C591.069 55.7981 624.329 139.353 628.152 148.502C628.184 148.567 628.194 148.641 628.182 148.713C628.169 148.785 628.135 148.851 628.083 148.902C628.031 148.954 627.964 148.988 627.892 149.001C627.82 149.013 627.745 149.003 627.679 148.971C624.024 147.406 608.64 142.529 596.392 140.916C578.658 138.569 570.649 151.304 581.886 165.26C595.985 182.773 609.182 196.602 612.639 200.167C612.693 200.222 612.728 200.293 612.738 200.369C612.748 200.445 612.732 200.522 612.694 200.589C612.655 200.655 612.595 200.707 612.524 200.737C612.452 200.766 612.373 200.771 612.298 200.752C608.515 199.813 596.423 196.255 582.586 196.088C570.645 195.945 563.802 201.799 563.251 210.701C561.955 231.911 591.296 253.121 638.324 294.448C638.388 294.504 638.429 294.581 638.44 294.664C639.731 304.198 643.609 346.564 628.346 441.906C628.196 442.845 628.252 443.804 628.511 444.719C628.77 445.633 629.226 446.481 629.848 447.204C630.469 447.927 631.24 448.507 632.11 448.906C632.979 449.304 633.924 449.51 634.882 449.511H680.578C681.535 449.51 682.481 449.304 683.35 448.906C684.219 448.507 684.991 447.927 685.612 447.204C686.233 446.481 686.689 445.633 686.949 444.719C687.208 443.804 687.264 442.845 687.114 441.906C671.848 346.555 675.729 304.189 677.02 294.659C677.031 294.575 677.073 294.499 677.138 294.444C680.602 291.496 769.039 215.834 750.038 190.958Z" fill="#A4D24F"></path><path d="M1336.41 152.718C1333.1 148.339 1327.35 147.004 1322.28 147.988C1312.15 149.956 1301.83 156.478 1297.45 159.504C1297.4 159.551 1297.33 159.575 1297.26 159.571C1297.19 159.566 1297.12 159.535 1297.08 159.482C1297.03 159.43 1297.01 159.361 1297.01 159.29C1297.01 159.22 1297.05 159.155 1297.1 159.108C1304.09 151.504 1326.86 127.124 1320.72 113.918C1318.26 108.609 1311.58 107.405 1306.19 108.799C1297.21 111.109 1284.82 118.773 1281.73 120.746C1281.68 120.776 1281.62 120.79 1281.57 120.786C1281.51 120.782 1281.46 120.76 1281.42 120.724C1281.37 120.687 1281.34 120.638 1281.33 120.584C1281.32 120.529 1281.32 120.472 1281.34 120.42C1282.73 117.115 1287.94 103.893 1289.04 88.98C1290.63 67.5045 1286.51 44.7633 1261.49 47.1767C1218.26 51.3486 1242.98 114.015 1245.82 120.876C1245.85 120.926 1245.85 120.981 1245.84 121.035C1245.83 121.089 1245.81 121.138 1245.77 121.177C1245.73 121.215 1245.68 121.241 1245.63 121.25C1245.58 121.26 1245.52 121.252 1245.47 121.228C1242.75 120.054 1231.32 116.396 1222.22 115.187C1209.04 113.427 1203.08 122.978 1211.43 133.445C1221.91 146.58 1231.72 156.952 1234.29 159.626C1234.33 159.666 1234.36 159.72 1234.37 159.777C1234.37 159.834 1234.36 159.892 1234.33 159.942C1234.3 159.992 1234.26 160.031 1234.21 160.053C1234.15 160.075 1234.09 160.079 1234.04 160.064C1231.23 159.36 1222.24 156.691 1211.96 156.566C1203.08 156.459 1197.99 160.849 1197.58 167.526C1196.62 183.433 1218.43 199.341 1253.38 230.336C1253.43 230.378 1253.46 230.436 1253.47 230.498C1254.43 237.648 1257.31 269.423 1245.97 340.93C1245.85 341.633 1245.9 342.353 1246.09 343.039C1246.28 343.725 1246.62 344.361 1247.08 344.903C1247.54 345.445 1248.12 345.881 1248.76 346.179C1249.41 346.478 1250.11 346.633 1250.82 346.633H1284.79C1285.5 346.633 1286.2 346.478 1286.85 346.179C1287.49 345.881 1288.07 345.445 1288.53 344.903C1288.99 344.361 1289.33 343.725 1289.52 343.039C1289.71 342.353 1289.76 341.633 1289.64 340.93C1278.3 269.416 1281.18 237.641 1282.14 230.495C1282.15 230.432 1282.18 230.374 1282.23 230.333C1284.8 228.122 1350.54 171.375 1336.41 152.718Z" fill="#008009"></path><path d="M843.519 266.619C843.448 266.619 843.38 266.59 843.329 266.54C843.279 266.489 843.25 266.42 843.25 266.349C843.25 266.277 843.279 266.209 843.329 266.158C843.38 266.107 843.448 266.079 843.519 266.079C851.124 264.67 879.308 257.322 871.709 226.685C863.437 193.344 833.978 204.701 827.13 207.85C827.074 207.876 827.01 207.881 826.95 207.864C826.89 207.848 826.838 207.811 826.802 207.761C826.766 207.71 826.748 207.649 826.752 207.587C826.756 207.525 826.781 207.466 826.823 207.42C830.304 203.688 840.278 191.035 833.147 174.918C828.522 164.452 817.248 147.997 791.645 155.634C747.698 168.751 768.55 202.812 773.25 209.609C773.283 209.659 773.298 209.72 773.292 209.78C773.287 209.84 773.261 209.897 773.22 209.941C773.179 209.985 773.124 210.013 773.064 210.022C773.005 210.031 772.944 210.02 772.891 209.99C766.286 205.803 739.688 194.555 729.581 221.381C721.722 242.238 738.55 253.534 741.575 255.573C741.62 255.603 741.655 255.646 741.676 255.696C741.696 255.747 741.701 255.802 741.689 255.855C741.678 255.908 741.65 255.956 741.61 255.994C741.571 256.031 741.521 256.055 741.467 256.063C737.745 256.644 722.568 262.883 720.188 276.578C718.88 284.1 721.444 293.871 731.881 306.191C746.386 323.3 781.434 307.527 785.807 304.732C785.847 304.706 785.893 304.691 785.94 304.689C785.987 304.687 786.034 304.697 786.076 304.719C786.118 304.74 786.153 304.773 786.178 304.813C786.204 304.853 786.218 304.899 786.22 304.946C786.898 321.059 789.069 391.505 777.842 442.778C777.107 446.142 779.315 448.897 782.749 448.897H813.47C816.903 448.897 819.113 446.145 818.376 442.778C807.779 394.384 809.119 328.896 809.873 308.155C809.874 308.103 809.889 308.053 809.918 308.01C809.946 307.967 809.986 307.933 810.033 307.913C810.08 307.892 810.132 307.885 810.183 307.893C810.233 307.9 810.281 307.923 810.319 307.957C817.583 314.453 851.743 342.478 870.615 313.355C894.56 276.414 852.982 268.021 843.519 266.619Z" fill="#F7BC00"></path><g clip-path="url(#clip2_419_5832)"><path d="M1209.33 168.566C1206.43 150.12 1167.36 174.371 1156.31 181.638C1156.25 181.675 1156.18 181.689 1156.11 181.677C1156.04 181.665 1155.98 181.629 1155.94 181.576C1155.9 181.522 1155.88 181.454 1155.88 181.386C1155.89 181.318 1155.92 181.253 1155.96 181.205C1165.86 171.721 1199.81 136.492 1171.24 124.733C1145.29 114.054 1127.08 163.328 1123.33 174.486C1123.31 174.549 1123.27 174.601 1123.21 174.634C1123.15 174.667 1123.08 174.677 1123.02 174.664C1122.95 174.651 1122.89 174.615 1122.85 174.563C1122.81 174.511 1122.79 174.445 1122.79 174.379C1123.68 160.877 1126.05 93.5864 1083.16 118.472C1053.36 135.767 1082.42 171.702 1089.73 179.976C1089.78 180.025 1089.82 180.093 1089.82 180.167C1089.82 180.241 1089.8 180.313 1089.75 180.368C1089.7 180.423 1089.63 180.456 1089.56 180.46C1089.49 180.464 1089.41 180.439 1089.36 180.39C1077.98 172.834 1020.31 136.727 1023.75 183.719C1025.97 213.867 1056.03 205.072 1066.36 201.134C1066.42 201.107 1066.49 201.105 1066.56 201.13C1066.62 201.154 1066.68 201.202 1066.71 201.265C1066.74 201.328 1066.75 201.4 1066.73 201.467C1066.71 201.534 1066.66 201.591 1066.6 201.626C1059.03 206.415 1040.71 219.502 1040.98 233.77C1041.07 238.394 1043.85 245.812 1049.54 248.548C1059.09 253.146 1066.87 237.896 1078.63 231.793C1088.45 226.699 1098.4 226.614 1098.4 226.614H1098.57C1098.64 226.613 1098.71 226.639 1098.76 226.688C1098.82 226.737 1098.85 226.805 1098.85 226.877C1099.98 247.151 1103.14 329.791 1085.56 406.665C1084.76 410.151 1087.03 413.003 1090.59 413.003H1142.9C1146.48 413.003 1148.74 410.151 1147.94 406.661C1129.48 325.909 1133.91 238.803 1134.81 224.295C1134.81 224.245 1134.83 224.197 1134.86 224.156C1134.88 224.115 1134.92 224.082 1134.97 224.062C1135.01 224.041 1135.06 224.032 1135.11 224.038C1135.16 224.043 1135.21 224.061 1135.25 224.091C1139.73 227.404 1179.96 256.225 1194.09 234.465C1204.18 218.929 1170.67 205.766 1158.47 201.589C1158.41 201.567 1158.35 201.521 1158.32 201.459C1158.28 201.398 1158.27 201.327 1158.29 201.259C1158.31 201.191 1158.35 201.133 1158.41 201.094C1158.47 201.056 1158.54 201.041 1158.61 201.053C1172.72 203.38 1215.44 207.388 1209.33 168.566Z" fill="#FFAF87"></path></g><g clip-path="url(#clip3_419_5832)"><path d="M366.16 124.087C362.276 99.4933 309.966 131.828 295.173 141.518C295.095 141.566 295.002 141.585 294.912 141.569C294.822 141.554 294.741 141.506 294.684 141.434C294.627 141.363 294.599 141.273 294.605 141.181C294.611 141.09 294.65 141.005 294.715 140.941C307.966 128.295 353.418 81.3232 315.17 65.6439C280.424 51.4048 256.049 117.104 251.03 131.981C251 132.065 250.941 132.135 250.864 132.178C250.786 132.222 250.696 132.236 250.609 132.219C250.522 132.202 250.444 132.154 250.389 132.084C250.334 132.014 250.307 131.927 250.311 131.838C251.493 113.836 254.667 24.1152 197.254 57.2963C157.354 80.3565 196.265 128.27 206.045 139.301C206.118 139.366 206.163 139.458 206.168 139.556C206.174 139.654 206.14 139.75 206.075 139.823C206.009 139.897 205.917 139.941 205.819 139.947C205.72 139.952 205.624 139.918 205.551 139.853C190.322 129.779 113.12 81.6364 117.721 144.292C120.687 184.489 160.939 172.763 174.755 167.513C174.842 167.476 174.938 167.474 175.026 167.506C175.114 167.539 175.186 167.603 175.228 167.687C175.27 167.77 175.278 167.867 175.252 167.956C175.225 168.046 175.165 168.122 175.084 168.169C164.948 174.553 140.422 192.003 140.786 211.027C140.904 217.192 144.632 227.083 152.244 230.73C165.03 236.861 175.443 216.528 191.187 208.39C204.327 201.599 217.654 201.485 217.654 201.485H217.879C217.975 201.484 218.069 201.519 218.14 201.584C218.21 201.65 218.253 201.74 218.26 201.835C219.765 228.869 224 339.055 200.46 441.553C199.395 446.201 202.438 450.004 207.204 450.004H277.232C282.018 450.004 285.044 446.201 283.976 441.548C259.255 333.879 265.188 217.737 266.395 198.393C266.399 198.327 266.421 198.263 266.458 198.208C266.496 198.154 266.547 198.11 266.608 198.082C266.668 198.054 266.735 198.043 266.801 198.05C266.867 198.057 266.93 198.082 266.983 198.122C272.983 202.538 326.841 240.967 345.752 211.954C359.258 191.239 314.401 173.688 298.072 168.119C297.984 168.089 297.91 168.028 297.866 167.946C297.821 167.864 297.809 167.769 297.832 167.679C297.854 167.588 297.91 167.51 297.988 167.459C298.067 167.408 298.161 167.389 298.253 167.404C317.14 170.506 374.33 175.85 366.16 124.087Z" fill="#008009"></path></g><g clip-path="url(#clip4_419_5832)"><path d="M373.569 493.349C377.837 468.047 379.196 438.484 379.623 413.422C379.624 413.377 379.614 413.332 379.595 413.291C379.576 413.249 379.548 413.213 379.513 413.183C379.477 413.154 379.436 413.133 379.391 413.122C379.346 413.11 379.3 413.109 379.254 413.117C360.693 416.558 333.441 411.928 332.526 384.082C332.524 384.021 332.504 383.961 332.467 383.912C332.43 383.862 332.379 383.824 332.321 383.803C332.262 383.783 332.198 383.78 332.138 383.795C332.077 383.81 332.023 383.843 331.982 383.889C319.095 398.304 255.682 386.233 259.513 325.016C260.377 311.216 274.236 285.567 298.009 286.994C298.058 286.997 298.106 286.989 298.151 286.97C298.195 286.952 298.235 286.923 298.266 286.887C298.298 286.851 298.32 286.808 298.331 286.762C298.343 286.716 298.343 286.667 298.332 286.621C281.775 214.799 351.25 213.387 369.105 227.513C369.139 227.54 369.178 227.56 369.22 227.571C369.262 227.583 369.306 227.585 369.35 227.579C369.393 227.572 369.434 227.557 369.471 227.533C369.507 227.51 369.538 227.479 369.562 227.443C400.108 181.655 477.129 195.576 470.996 251.289C470.99 251.346 471 251.405 471.026 251.457C471.052 251.509 471.093 251.553 471.143 251.584C471.194 251.614 471.252 251.63 471.311 251.629C471.37 251.628 471.428 251.611 471.477 251.579C512.185 225.645 547.867 278.207 521.242 308.829C521.211 308.864 521.189 308.906 521.177 308.95C521.164 308.995 521.163 309.042 521.172 309.088C521.181 309.133 521.201 309.176 521.23 309.213C521.259 309.25 521.296 309.279 521.338 309.3C534.442 315.785 540.973 327.467 542.594 340.122C546.481 370.304 514.119 407.809 473.661 389.255C473.611 389.232 473.556 389.223 473.501 389.228C473.447 389.233 473.394 389.253 473.349 389.284C473.305 389.315 473.269 389.358 473.246 389.407C473.223 389.456 473.214 389.51 473.22 389.564C474.58 407.803 446.895 421.861 424.718 410.963C424.671 410.94 424.618 410.928 424.565 410.93C424.512 410.932 424.46 410.947 424.415 410.974C424.37 411.001 424.332 411.039 424.305 411.084C424.279 411.129 424.264 411.18 424.263 411.232C423.934 437.64 424.211 468.027 428.942 493.244C429.094 494.07 429.061 494.919 428.843 495.73C428.625 496.542 428.228 497.296 427.681 497.941C427.133 498.585 426.448 499.103 425.675 499.459C424.901 499.815 424.057 500 423.203 500H379.331C378.486 500 377.65 499.82 376.882 499.472C376.115 499.124 375.433 498.616 374.885 497.983C374.337 497.35 373.936 496.608 373.708 495.808C373.481 495.008 373.434 494.169 373.569 493.349Z" fill="#0094C7"></path></g></g><defs><clipPath id="clip0_419_5832"><rect width="471.263" height="500" fill="white" transform="translate(489.428 50)"></rect></clipPath><clipPath id="clip1_419_5832"><rect width="377.414" height="400" fill="white" transform="translate(1059.59 150)"></rect></clipPath><clipPath id="clip2_419_5832"><rect width="187.698" height="300" fill="white" transform="translate(1023.26 113)"></rect></clipPath><clipPath id="clip3_419_5832"><rect width="251.273" height="400" fill="white" transform="translate(117.059 50)"></rect></clipPath><clipPath id="clip4_419_5832"><rect width="283.565" height="300" fill="white" transform="translate(259.346 200)"></rect></clipPath></defs></svg>